<mxfile host="app.diagrams.net" agent="Mozilla/5.0 (Windows NT 10.0; Win64; x64; rv:128.0) Gecko/20100101 Firefox/128.0" version="26.0.5">
  <diagram name="Page-1" id="-6uCEIyc3rQsE5mptAq-">
    <mxGraphModel dx="3477" dy="1600" grid="1" gridSize="10" guides="1" tooltips="1" connect="1" arrows="1" fold="1" page="1" pageScale="1" pageWidth="850" pageHeight="1100" math="0" shadow="0">
      <root>
        <mxCell id="0" />
        <mxCell id="1" parent="0" />
        <mxCell id="sySjgek_SS39Fm3X1UtH-11" value="" style="rounded=1;whiteSpace=wrap;html=1;fillColor=#f5f5f5;strokeColor=#666666;strokeWidth=4;fillStyle=hatch;fontColor=#333333;" vertex="1" parent="1">
          <mxGeometry x="-780" y="380" width="450" height="460" as="geometry" />
        </mxCell>
        <mxCell id="efzbPpGwgziq4d4_UylA-24" value="" style="group;arcSize=1;" parent="1" vertex="1" connectable="0">
          <mxGeometry x="550" y="300" width="260" height="160" as="geometry" />
        </mxCell>
        <mxCell id="efzbPpGwgziq4d4_UylA-20" value="" style="rounded=1;whiteSpace=wrap;html=1;" parent="efzbPpGwgziq4d4_UylA-24" vertex="1">
          <mxGeometry width="260" height="160" as="geometry" />
        </mxCell>
        <mxCell id="efzbPpGwgziq4d4_UylA-21" value="&lt;b&gt;&lt;font style=&quot;font-size: 18px;&quot;&gt;&lt;font&gt;Trusted - VLAN10&lt;/font&gt;&lt;font&gt;&lt;br&gt;&lt;/font&gt;&lt;/font&gt;&lt;/b&gt;" style="text;html=1;align=center;verticalAlign=middle;whiteSpace=wrap;rounded=0;" parent="efzbPpGwgziq4d4_UylA-24" vertex="1">
          <mxGeometry x="30" y="20" width="200" height="30" as="geometry" />
        </mxCell>
        <mxCell id="efzbPpGwgziq4d4_UylA-22" value="- INTERNET ONLY" style="text;html=1;align=center;verticalAlign=middle;whiteSpace=wrap;rounded=0;" parent="efzbPpGwgziq4d4_UylA-24" vertex="1">
          <mxGeometry x="40" y="60" width="180" height="20" as="geometry" />
        </mxCell>
        <mxCell id="efzbPpGwgziq4d4_UylA-23" value="- Security Cameras" style="text;html=1;align=center;verticalAlign=middle;whiteSpace=wrap;rounded=0;" parent="efzbPpGwgziq4d4_UylA-24" vertex="1">
          <mxGeometry x="40" y="90" width="180" height="20" as="geometry" />
        </mxCell>
        <mxCell id="efzbPpGwgziq4d4_UylA-25" value="" style="group;arcSize=1;" parent="1" vertex="1" connectable="0">
          <mxGeometry x="280" y="300" width="260" height="160" as="geometry" />
        </mxCell>
        <mxCell id="efzbPpGwgziq4d4_UylA-26" value="" style="rounded=1;whiteSpace=wrap;html=1;" parent="efzbPpGwgziq4d4_UylA-25" vertex="1">
          <mxGeometry width="260" height="160" as="geometry" />
        </mxCell>
        <mxCell id="efzbPpGwgziq4d4_UylA-27" value="&lt;b&gt;&lt;font style=&quot;font-size: 18px;&quot;&gt;&lt;font&gt;Guest - VLAN40&lt;/font&gt;&lt;font&gt;&lt;br&gt;&lt;/font&gt;&lt;/font&gt;&lt;/b&gt;" style="text;html=1;align=center;verticalAlign=middle;whiteSpace=wrap;rounded=0;" parent="efzbPpGwgziq4d4_UylA-25" vertex="1">
          <mxGeometry x="30" y="20" width="200" height="30" as="geometry" />
        </mxCell>
        <mxCell id="efzbPpGwgziq4d4_UylA-28" value="- INTERNET ONLY" style="text;html=1;align=center;verticalAlign=middle;whiteSpace=wrap;rounded=0;" parent="efzbPpGwgziq4d4_UylA-25" vertex="1">
          <mxGeometry x="40" y="60" width="180" height="20" as="geometry" />
        </mxCell>
        <mxCell id="efzbPpGwgziq4d4_UylA-29" value="- Security Cameras" style="text;html=1;align=center;verticalAlign=middle;whiteSpace=wrap;rounded=0;" parent="efzbPpGwgziq4d4_UylA-25" vertex="1">
          <mxGeometry x="40" y="90" width="180" height="20" as="geometry" />
        </mxCell>
        <mxCell id="efzbPpGwgziq4d4_UylA-34" value="" style="group;arcSize=1;" parent="1" vertex="1" connectable="0">
          <mxGeometry x="550" y="480" width="260" height="160" as="geometry" />
        </mxCell>
        <mxCell id="efzbPpGwgziq4d4_UylA-35" value="" style="rounded=1;whiteSpace=wrap;html=1;" parent="efzbPpGwgziq4d4_UylA-34" vertex="1">
          <mxGeometry width="260" height="160" as="geometry" />
        </mxCell>
        <mxCell id="efzbPpGwgziq4d4_UylA-36" value="&lt;b&gt;&lt;font style=&quot;font-size: 18px;&quot;&gt;&lt;font&gt;IOT Devices - VLAN20&lt;/font&gt;&lt;font&gt;&lt;br&gt;&lt;/font&gt;&lt;/font&gt;&lt;/b&gt;" style="text;html=1;align=center;verticalAlign=middle;whiteSpace=wrap;rounded=0;" parent="efzbPpGwgziq4d4_UylA-34" vertex="1">
          <mxGeometry x="30" y="20" width="200" height="30" as="geometry" />
        </mxCell>
        <mxCell id="efzbPpGwgziq4d4_UylA-37" value="- INTERNET ONLY" style="text;html=1;align=center;verticalAlign=middle;whiteSpace=wrap;rounded=0;" parent="efzbPpGwgziq4d4_UylA-34" vertex="1">
          <mxGeometry x="40" y="60" width="180" height="20" as="geometry" />
        </mxCell>
        <mxCell id="efzbPpGwgziq4d4_UylA-38" value="- Security Cameras" style="text;html=1;align=center;verticalAlign=middle;whiteSpace=wrap;rounded=0;" parent="efzbPpGwgziq4d4_UylA-34" vertex="1">
          <mxGeometry x="40" y="90" width="180" height="20" as="geometry" />
        </mxCell>
        <mxCell id="efzbPpGwgziq4d4_UylA-39" value="" style="group;arcSize=1;" parent="1" vertex="1" connectable="0">
          <mxGeometry x="280" y="480" width="260" height="160" as="geometry" />
        </mxCell>
        <mxCell id="efzbPpGwgziq4d4_UylA-40" value="" style="rounded=1;whiteSpace=wrap;html=1;" parent="efzbPpGwgziq4d4_UylA-39" vertex="1">
          <mxGeometry width="260" height="160" as="geometry" />
        </mxCell>
        <mxCell id="efzbPpGwgziq4d4_UylA-41" value="&lt;b&gt;&lt;font style=&quot;font-size: 18px;&quot;&gt;&lt;font&gt;Security - VLAN30&lt;/font&gt;&lt;font&gt;&lt;br&gt;&lt;/font&gt;&lt;/font&gt;&lt;/b&gt;" style="text;html=1;align=center;verticalAlign=middle;whiteSpace=wrap;rounded=0;" parent="efzbPpGwgziq4d4_UylA-39" vertex="1">
          <mxGeometry x="30" y="20" width="200" height="30" as="geometry" />
        </mxCell>
        <mxCell id="efzbPpGwgziq4d4_UylA-42" value="- INTERNET ONLY" style="text;html=1;align=center;verticalAlign=middle;whiteSpace=wrap;rounded=0;" parent="efzbPpGwgziq4d4_UylA-39" vertex="1">
          <mxGeometry x="40" y="60" width="180" height="20" as="geometry" />
        </mxCell>
        <mxCell id="efzbPpGwgziq4d4_UylA-43" value="- Security Cameras" style="text;html=1;align=center;verticalAlign=middle;whiteSpace=wrap;rounded=0;" parent="efzbPpGwgziq4d4_UylA-39" vertex="1">
          <mxGeometry x="40" y="90" width="180" height="20" as="geometry" />
        </mxCell>
        <mxCell id="efzbPpGwgziq4d4_UylA-44" value="" style="group;arcSize=1;absoluteArcSize=0;" parent="1" vertex="1" connectable="0">
          <mxGeometry x="10" y="300" width="260" height="160" as="geometry" />
        </mxCell>
        <mxCell id="efzbPpGwgziq4d4_UylA-45" value="" style="rounded=1;whiteSpace=wrap;html=1;" parent="efzbPpGwgziq4d4_UylA-44" vertex="1">
          <mxGeometry width="260" height="160" as="geometry" />
        </mxCell>
        <mxCell id="efzbPpGwgziq4d4_UylA-46" value="&lt;b&gt;&lt;font style=&quot;font-size: 18px;&quot;&gt;&lt;font&gt;DMZ - VLAN60&lt;/font&gt;&lt;font&gt;&lt;br&gt;&lt;/font&gt;&lt;/font&gt;&lt;/b&gt;" style="text;html=1;align=center;verticalAlign=middle;whiteSpace=wrap;rounded=0;" parent="efzbPpGwgziq4d4_UylA-44" vertex="1">
          <mxGeometry x="30" y="20" width="200" height="30" as="geometry" />
        </mxCell>
        <mxCell id="efzbPpGwgziq4d4_UylA-47" value="- INTERNET ONLY" style="text;html=1;align=center;verticalAlign=middle;whiteSpace=wrap;rounded=0;" parent="efzbPpGwgziq4d4_UylA-44" vertex="1">
          <mxGeometry x="40" y="60" width="180" height="20" as="geometry" />
        </mxCell>
        <mxCell id="efzbPpGwgziq4d4_UylA-48" value="- Security Cameras" style="text;html=1;align=center;verticalAlign=middle;whiteSpace=wrap;rounded=0;" parent="efzbPpGwgziq4d4_UylA-44" vertex="1">
          <mxGeometry x="40" y="90" width="180" height="20" as="geometry" />
        </mxCell>
        <mxCell id="efzbPpGwgziq4d4_UylA-49" value="" style="group;arcSize=1;" parent="1" vertex="1" connectable="0">
          <mxGeometry x="10" y="480" width="260" height="160" as="geometry" />
        </mxCell>
        <mxCell id="efzbPpGwgziq4d4_UylA-50" value="" style="rounded=1;whiteSpace=wrap;html=1;" parent="efzbPpGwgziq4d4_UylA-49" vertex="1">
          <mxGeometry width="260" height="160" as="geometry" />
        </mxCell>
        <mxCell id="efzbPpGwgziq4d4_UylA-51" value="&lt;b&gt;&lt;font style=&quot;font-size: 18px;&quot;&gt;&lt;font&gt;Servers - VLAN50&lt;/font&gt;&lt;font&gt;&lt;br&gt;&lt;/font&gt;&lt;/font&gt;&lt;/b&gt;" style="text;html=1;align=center;verticalAlign=middle;whiteSpace=wrap;rounded=0;" parent="efzbPpGwgziq4d4_UylA-49" vertex="1">
          <mxGeometry x="30" y="20" width="200" height="30" as="geometry" />
        </mxCell>
        <mxCell id="efzbPpGwgziq4d4_UylA-52" value="- INTERNET ONLY" style="text;html=1;align=center;verticalAlign=middle;whiteSpace=wrap;rounded=0;" parent="efzbPpGwgziq4d4_UylA-49" vertex="1">
          <mxGeometry x="40" y="60" width="180" height="20" as="geometry" />
        </mxCell>
        <mxCell id="efzbPpGwgziq4d4_UylA-53" value="- Security Cameras" style="text;html=1;align=center;verticalAlign=middle;whiteSpace=wrap;rounded=0;" parent="efzbPpGwgziq4d4_UylA-49" vertex="1">
          <mxGeometry x="40" y="90" width="180" height="20" as="geometry" />
        </mxCell>
        <mxCell id="sySjgek_SS39Fm3X1UtH-1" value="" style="rounded=1;whiteSpace=wrap;html=1;fillColor=#f5f5f5;fontColor=#333333;strokeColor=#666666;gradientColor=none;gradientDirection=west;strokeWidth=5;" vertex="1" parent="1">
          <mxGeometry x="-730" y="690" width="350" height="90" as="geometry" />
        </mxCell>
        <mxCell id="sySjgek_SS39Fm3X1UtH-3" value="&lt;font face=&quot;Lucida Console&quot; style=&quot;font-size: 47px;&quot;&gt;PFS&lt;/font&gt;" style="text;html=1;align=center;verticalAlign=middle;whiteSpace=wrap;rounded=0;" vertex="1" parent="1">
          <mxGeometry x="-700" y="730" width="60" height="30" as="geometry" />
        </mxCell>
        <mxCell id="sySjgek_SS39Fm3X1UtH-4" value="PFS.HHLOCALHOST.TOP" style="text;html=1;align=left;verticalAlign=middle;whiteSpace=wrap;rounded=0;" vertex="1" parent="1">
          <mxGeometry x="-605" y="700" width="220" height="20" as="geometry" />
        </mxCell>
        <mxCell id="sySjgek_SS39Fm3X1UtH-5" value="&lt;div&gt;1x Intel N100&lt;/div&gt;&lt;div&gt;2x 8GB DDR5&lt;/div&gt;&lt;div&gt;1x Samsung 256GB NVME&lt;br&gt;&lt;/div&gt;&lt;div&gt;&lt;br&gt;&lt;/div&gt;" style="text;html=1;align=left;verticalAlign=middle;whiteSpace=wrap;rounded=0;" vertex="1" parent="1">
          <mxGeometry x="-605" y="730" width="170" height="40" as="geometry" />
        </mxCell>
        <mxCell id="sySjgek_SS39Fm3X1UtH-28" value="" style="group" vertex="1" connectable="0" parent="1">
          <mxGeometry x="-470" y="820" width="60" height="70" as="geometry" />
        </mxCell>
        <mxCell id="sySjgek_SS39Fm3X1UtH-24" value="" style="rounded=1;whiteSpace=wrap;html=1;fillColor=#f5f5f5;fontColor=#333333;strokeColor=#666666;strokeWidth=5;" vertex="1" parent="sySjgek_SS39Fm3X1UtH-28">
          <mxGeometry width="60" height="70" as="geometry" />
        </mxCell>
        <mxCell id="sySjgek_SS39Fm3X1UtH-25" value="" style="sketch=0;pointerEvents=1;shadow=0;dashed=0;html=1;strokeColor=none;fillColor=#434445;aspect=fixed;labelPosition=center;verticalLabelPosition=bottom;verticalAlign=top;align=center;outlineConnect=0;shape=mxgraph.vvd.ethernet_port;" vertex="1" parent="sySjgek_SS39Fm3X1UtH-28">
          <mxGeometry x="10" y="10" width="40" height="40" as="geometry" />
        </mxCell>
        <mxCell id="sySjgek_SS39Fm3X1UtH-26" value="IGC3" style="text;html=1;align=center;verticalAlign=middle;whiteSpace=wrap;rounded=0;" vertex="1" parent="sySjgek_SS39Fm3X1UtH-28">
          <mxGeometry x="7.5" y="50" width="45" height="15" as="geometry" />
        </mxCell>
        <mxCell id="sySjgek_SS39Fm3X1UtH-29" value="" style="group" vertex="1" connectable="0" parent="1">
          <mxGeometry x="-625" y="820" width="60" height="70" as="geometry" />
        </mxCell>
        <mxCell id="sySjgek_SS39Fm3X1UtH-21" value="" style="rounded=1;whiteSpace=wrap;html=1;fillColor=#f5f5f5;fontColor=#333333;strokeColor=#666666;strokeWidth=5;" vertex="1" parent="sySjgek_SS39Fm3X1UtH-29">
          <mxGeometry width="60" height="70" as="geometry" />
        </mxCell>
        <mxCell id="sySjgek_SS39Fm3X1UtH-22" value="" style="sketch=0;pointerEvents=1;shadow=0;dashed=0;html=1;strokeColor=none;fillColor=#434445;aspect=fixed;labelPosition=center;verticalLabelPosition=bottom;verticalAlign=top;align=center;outlineConnect=0;shape=mxgraph.vvd.ethernet_port;" vertex="1" parent="sySjgek_SS39Fm3X1UtH-29">
          <mxGeometry x="10" y="10" width="40" height="40" as="geometry" />
        </mxCell>
        <mxCell id="sySjgek_SS39Fm3X1UtH-23" value="IGC1" style="text;html=1;align=center;verticalAlign=middle;whiteSpace=wrap;rounded=0;" vertex="1" parent="sySjgek_SS39Fm3X1UtH-29">
          <mxGeometry x="7.5" y="50" width="45" height="15" as="geometry" />
        </mxCell>
        <mxCell id="sySjgek_SS39Fm3X1UtH-30" value="" style="group" vertex="1" connectable="0" parent="1">
          <mxGeometry x="-700" y="820" width="60" height="70" as="geometry" />
        </mxCell>
        <mxCell id="sySjgek_SS39Fm3X1UtH-8" value="" style="rounded=1;whiteSpace=wrap;html=1;fillColor=#f5f5f5;fontColor=#333333;strokeColor=#666666;strokeWidth=5;" vertex="1" parent="sySjgek_SS39Fm3X1UtH-30">
          <mxGeometry width="60" height="70" as="geometry" />
        </mxCell>
        <mxCell id="sySjgek_SS39Fm3X1UtH-15" value="" style="sketch=0;pointerEvents=1;shadow=0;dashed=0;html=1;strokeColor=none;fillColor=#434445;aspect=fixed;labelPosition=center;verticalLabelPosition=bottom;verticalAlign=top;align=center;outlineConnect=0;shape=mxgraph.vvd.ethernet_port;" vertex="1" parent="sySjgek_SS39Fm3X1UtH-30">
          <mxGeometry x="10" y="10" width="40" height="40" as="geometry" />
        </mxCell>
        <mxCell id="sySjgek_SS39Fm3X1UtH-17" value="IGC0" style="text;html=1;align=center;verticalAlign=middle;whiteSpace=wrap;rounded=0;" vertex="1" parent="sySjgek_SS39Fm3X1UtH-30">
          <mxGeometry x="7.5" y="50" width="45" height="15" as="geometry" />
        </mxCell>
        <mxCell id="sySjgek_SS39Fm3X1UtH-31" value="" style="group" vertex="1" connectable="0" parent="1">
          <mxGeometry x="-547" y="820" width="60" height="70" as="geometry" />
        </mxCell>
        <mxCell id="sySjgek_SS39Fm3X1UtH-32" value="" style="rounded=1;whiteSpace=wrap;html=1;fillColor=#f5f5f5;fontColor=#333333;strokeColor=#666666;strokeWidth=5;" vertex="1" parent="sySjgek_SS39Fm3X1UtH-31">
          <mxGeometry width="60" height="70" as="geometry" />
        </mxCell>
        <mxCell id="sySjgek_SS39Fm3X1UtH-33" value="" style="sketch=0;pointerEvents=1;shadow=0;dashed=0;html=1;strokeColor=none;fillColor=#434445;aspect=fixed;labelPosition=center;verticalLabelPosition=bottom;verticalAlign=top;align=center;outlineConnect=0;shape=mxgraph.vvd.ethernet_port;" vertex="1" parent="sySjgek_SS39Fm3X1UtH-31">
          <mxGeometry x="10" y="10" width="40" height="40" as="geometry" />
        </mxCell>
        <mxCell id="sySjgek_SS39Fm3X1UtH-34" value="IGC2" style="text;html=1;align=center;verticalAlign=middle;whiteSpace=wrap;rounded=0;" vertex="1" parent="sySjgek_SS39Fm3X1UtH-31">
          <mxGeometry x="7.5" y="50" width="45" height="15" as="geometry" />
        </mxCell>
        <mxCell id="sySjgek_SS39Fm3X1UtH-38" value="" style="rounded=1;whiteSpace=wrap;html=1;fillColor=#f5f5f5;fontColor=#333333;strokeColor=#666666;gradientColor=none;gradientDirection=west;strokeWidth=5;" vertex="1" parent="1">
          <mxGeometry x="-540" y="580" width="150" height="100" as="geometry" />
        </mxCell>
        <mxCell id="sySjgek_SS39Fm3X1UtH-36" value="&lt;b&gt;Version&lt;/b&gt;" style="text;html=1;align=center;verticalAlign=middle;whiteSpace=wrap;rounded=0;" vertex="1" parent="1">
          <mxGeometry x="-495" y="640" width="60" height="10" as="geometry" />
        </mxCell>
        <mxCell id="sySjgek_SS39Fm3X1UtH-39" value="pfsense Stable 2.7.2" style="text;html=1;align=center;verticalAlign=middle;whiteSpace=wrap;rounded=0;" vertex="1" parent="1">
          <mxGeometry x="-530" y="650" width="130" height="20" as="geometry" />
        </mxCell>
        <mxCell id="sySjgek_SS39Fm3X1UtH-42" value="" style="shape=image;imageAspect=0;aspect=fixed;verticalLabelPosition=bottom;verticalAlign=top;image=data:image/png,iVBORw0KGgoAAAANSUhEUgAAAlgAAACwCAYAAADT7hAaAAAAAXNSR0IArs4c6QAAAK5lWElmTU0AKgAAAAgABgESAAMAAAABAAEAAAEaAAUAAAABAAAAVgEbAAUAAAABAAAAXgExAAIAAAANAAAAZgE7AAIAAAAQAAAAdIdpAAQAAAABAAAAhAAAAAAAAABIAAAAAQAAAEgAAAABQ29yZWxEUkFXIFg1AABDQUQgV29ya3N0YXRpb24AAAOgAQADAAAAAQABAACgAgAEAAAAAQAAAligAwAEAAAAAQAAALAAAAAAz8ctgQAAAAlwSFlzAAALEwAACxMBAJqcGAAABWtpVFh0WE1MOmNvbS5hZG9iZS54bXAAAAAAADx4OnhtcG1ldGEgeG1sbnM6eD0iYWRvYmU6bnM6bWV0YS8iIHg6eG1wdGs9IlhNUCBDb3JlIDUuNC4wIj4KICAgPHJkZjpSREYgeG1sbnM6cmRmPSJodHRwOi8vd3d3LnczLm9yZy8xOTk5LzAyLzIyLXJkZi1zeW50YXgtbnMjIj4KICAgICAgPHJkZjpEZXNjcmlwdGlvbiByZGY6YWJvdXQ9IiIKICAgICAgICAgICAgeG1sbnM6eG1wTU09Imh0dHA6Ly9ucy5hZG9iZS5jb20veGFwLzEuMC9tbS8iCiAgICAgICAgICAgIHhtbG5zOnN0UmVmPSJodHRwOi8vbnMuYWRvYmUuY29tL3hhcC8xLjAvc1R5cGUvUmVzb3VyY2VSZWYjIgogICAgICAgICAgICB4bWxuczp4bXA9Imh0dHA6Ly9ucy5hZG9iZS5jb20veGFwLzEuMC8iCiAgICAgICAgICAgIHhtbG5zOmRjPSJodHRwOi8vcHVybC5vcmcvZGMvZWxlbWVudHMvMS4xLyIKICAgICAgICAgICAgeG1sbnM6dGlmZj0iaHR0cDovL25zLmFkb2JlLmNvbS90aWZmLzEuMC8iPgogICAgICAgICA8eG1wTU06SW5zdGFuY2VJRD54bXAuaWlkOjZCRDIxOEY5MzhGQTExRTc5Njc0QTIyODNENUI1RDZFPC94bXBNTTpJbnN0YW5jZUlEPgogICAgICAgICA8eG1wTU06RG9jdW1lbnRJRD54bXAuZGlkOjZCRDIxOEZBMzhGQTExRTc5Njc0QTIyODNENUI1RDZFPC94bXBNTTpEb2N1bWVudElEPgogICAgICAgICA8eG1wTU06RGVyaXZlZEZyb20gcmRmOnBhcnNlVHlwZT0iUmVzb3VyY2UiPgogICAgICAgICAgICA8c3RSZWY6aW5zdGFuY2VJRD54bXAuaWlkOjZCRDIxOEY3MzhGQTExRTc5Njc0QTIyODNENUI1RDZFPC9zdFJlZjppbnN0YW5jZUlEPgogICAgICAgICAgICA8c3RSZWY6ZG9jdW1lbnRJRD54bXAuZGlkOjZCRDIxOEY4MzhGQTExRTc5Njc0QTIyODNENUI1RDZFPC9zdFJlZjpkb2N1bWVudElEPgogICAgICAgICA8L3htcE1NOkRlcml2ZWRGcm9tPgogICAgICAgICA8eG1wOkNyZWF0b3JUb29sPkNvcmVsRFJBVyBYNTwveG1wOkNyZWF0b3JUb29sPgogICAgICAgICA8ZGM6Y3JlYXRvcj4KICAgICAgICAgICAgPHJkZjpTZXE+CiAgICAgICAgICAgICAgIDxyZGY6bGk+Q0FEIFdvcmtzdGF0aW9uPC9yZGY6bGk+CiAgICAgICAgICAgIDwvcmRmOlNlcT4KICAgICAgICAgPC9kYzpjcmVhdG9yPgogICAgICAgICA8ZGM6dGl0bGU+CiAgICAgICAgICAgIDxyZGY6QWx0PgogICAgICAgICAgICAgICA8cmRmOmxpIHhtbDpsYW5nPSJ4LWRlZmF1bHQiPnBmU2Vuc2VDb2xvckxvZ29SZWdpc3RlcmVkUE1TPC9yZGY6bGk+CiAgICAgICAgICAgIDwvcmRmOkFsdD4KICAgICAgICAgPC9kYzp0aXRsZT4KICAgICAgICAgPHRpZmY6T3JpZW50YXRpb24+MTwvdGlmZjpPcmllbnRhdGlvbj4KICAgICAgPC9yZGY6RGVzY3JpcHRpb24+CiAgIDwvcmRmOlJERj4KPC94OnhtcG1ldGE+Cs38BCIAAEAASURBVHgB7H0JgFxFmX/Ve33MmYOQICEcRlSYSRCYCHIlM5ySA9R14rp4H7iyuisqyLru0uyuugKu7vLX1eiKy+6qm1ldNCHhTidcggxHkg6HGMJhgNzJnH28V//fr6rfTM9krp5+PUdSBZPufkcdX1V99fuO+koImywFLAUsBSwFLAUsBSwFLAUsBSwFLAUsBSwFLAUsBSwFLAUsBSwFLAUsBSwFLAUsBSwFLAUOIwrI0tuqpGgWjpje6pSel83hsKHA7DYlRKMvEtI/bNpsG2opYClgKWApYCkwLAWaV7oikYqJRMICq2GJZR8YlAJXPh4V/LPJUsBSwFLAUsBS4BCiQPEarIQCoEo6ItGUC+hw1JefrhZe5qiMK6qEiAWX7aelwIAUcJTMuXG5d8c35r/R54HEukjhuOpzz/6wFLAUsBSwFLAUmEQUKAJgwRR4ZWtErFiQZfumXffkCRFPvB8ZXKSEOkkIOUMIVYHPIvKcRJSyVQ2DAjALCo6PHL604csr+P6Y48hf7fjWqXfpAhTGWQtMzsulp3/bfywFLAUsBSwFLAUmIQVGBoZoBqy7XnLRO+La385xREVCKPUhWTElLnysg35WKH4qrp82WQoMRwEMO8cR0okI4cI66GH8ZLs24uo/7rzptBb9Ns2GeTA/XG72vqWApYClgKWApcBEo8DwAIvgKpHQjsgzvvTkR6UjvudUTa/2u/YRUGFlhMnQKK2Gz2uitd7WZ7wpQESutVoyWukSbKnuA7d7jvexvd9asF/7ZlmQNd59ZMu3FLAUsBSwFBgFBYYGRQXg6shrnvyWrJx6rcp0UuOQRll0thr6/VFUyL5yuFJA5QC1lFN9RNTv3PuS67rnv/FPp2y1IOtwHQ+23ZYClgKWApObAkPsAIQvDM2CSARXTtUR16qu/TmAK/hgyTguW3A1uft+gtVeRqAJJbjqkvGa4z3Pe3jG1U8do82EdH63yVLAUsBSwFLAUmASUWBwgEWHdvhczbjm6Y9Qc+V37oGGAaBLCDjNWF+rSdTHk62qlSrd0S0rao+SEXW7rjx3rOrdq5OtKba+lgKWApYClgKHKwUGBlhczOD7MuNvnjpGCv/72ixIUCWle7gSyrZ7LCmgKvzutgx8/RbMuOaJf9Alb2+1Y28su8CWZSlgKWApYClQEgUGBliMc4Uk0/4NTuU0xLiizxW3fNlkKVBWCgRO71SVOn73Adih5ZeOuvp3c62psKx0t5lbClgKWApYCoRMgYMBVrNChPam3LQvbTkeGqsP+d37WSQc2q1ZMGTaH4bZ6WNxGKA2i9GUCf7wO8Nr+MM9xXgfjIGlEAKkA/5YlV4k+lH8tslSwFLAUsBSwFJg0lDgYIBVv0WbYiJu9/vhBxOH3xUXROvQPmm6dAJVFLsCgZMYVBQAiuMIpmc3GpGxqqhTMSUG7WjMxZ80f1H4+uFvWiT/F5Wx6moZr0WD1F/OTKRqdJR3ezTTBOpgWxVLAUsBSwFLgcEo0M/sR8vMDQRUCBwqLpL4xyZLgSIoACylVZ2+3hDhRlzEt4o4DuJbQSkF53WG+NirvMzrwOz4Uzvwwh4Muv3QlrYjTm0a3/VJAVBfObgXlZnOauRZqzrTU/DZLq6/XiEuG77aZClgKWApYClgKTBxKdBXM0XzYIv0Zicer0p3uCknEj9B5dI011gH44nbhxOgZjT9abMeNVSujODEJIBzleloA5B6Cj8exd8TGEbPOZmuP+7oiuwZZZR2jleCOJssBSwFLAUsBSwFJjQF+mqwprfSZOh1druzEJRohj7+xpoHJ3QHjnflgHYyQD0R+EohfAfQT6Z9p0pn75bSuV2K7IM7bzoDmqpBEsN+LG/BmGsWoj7ZF+wXvpLaqUTLcuOXVXjdfrcUsBSwFLAUsBSYoBToC7DylXR9vxKbuCpg15mg1bbVGncK0OaH5FROiQkPVuV0x2+VUj9JK+//2r69YFdP/QiibkgaDSiBUv0Wpc18hFMaUi2nHRoAqucN+8VSwFLAUsBSwFJg0lNgQIBlWkV/LJssBQ6iAAGRJ2OVUeG4PDvwft9XN+75dsNdPU8mFMbVFmim6nLwreLz2q9P3yeQSiT0V/uPpYClgKWApYClwKFKgSEA1qHaZNuuEihAB/SorJjiqO79zwrlXrvr5tNX9eSXSCGcxw5fJGQvoOq5ab9YClgKWApYClgKHD4UsADr8OnrklpKXysnWhnDDkCBKOv/uPvG0/4O2ikEYghMgI0EVoxnZZOlgKWApYClgKXAYU8BC7AO+yEwPAE0uELcKpgDX/aV+6d7bj71EXET3rvy8ShAVj5A6PD52CcsBSwFLAUsBSwFDhcKWIB1uPT06NrJXQ45p3JqTHXtX+d3p9+z55Z3HRCfXxMXMy7NQmOlY1aNLmv7lqWApYClgKWApcChSwELsA7dvi21ZYzDnpNV06Kqa+//7Lrp9D/VGdLPKlGPsyltshSwFLAUsBSwFLAUGIwCBx+VM9iT9vphRQGorrKOBlf7ftYDrmgSTNRbP6vDaiTYxloKWApYClgKjIYCFmCNhmqH+DvG52pqzO/at3rXTaddoZubWBcZZfT1Q5xatnmWApYClgKWApYCB1PAAqyDaXIYX9Ghz7JOrBoO7fuf2lV96uWaGARXiSYbeuEwHhm26ZYClgKWApYCxVHA+mAVR69D/GmVw1mCUZwheMBzvMvhxO7rnYKJBdaZ/RDveds8SwFLAUsBS4FwKWA1WOHScxLnpiOuO9KNIbSV/7G931rwsqBD+woLriZxp9qqWwpYClgKWAqMEwUswBonwk+8YlVOVkx1VLbz33ff3PB/QpsF663mauJ1lK2RpYClgKWApcAkoIA1EU6CThqDKnowDTKQ6Ou5rPpyQXmMg2WTpYClgKWApYClgKVAkRSwAKtIgh2ijysZrRAq1/Z3+7572j7x+d/HReKtNtbVIdrZtlmWApYClgKWAuWngAVY5afxRC8hJ2NVEdXV9vSum0/7ka7sLWMKrrB1MaG3Lw5MqOuhRcOZhzZZClgKWApYClgKTCIKWIA1iTqrPFUlfnGFFPIbOv+EQkgGWeaQDAn4/m13hZiNwhMe/vzB25bArQTGaQrPtuBZmywFLAUsBSwFLAUmPgUswJr4fVTOGmYkYl6JdNvmnTWn/q8uKCHKCmLqRSKWEglGgy8AVVdG31QzY1rczdZkIyoOwKeEn+vsFtn9e/bccgAAKw/4FDRdVptVzgFh87YUsBSwFLAUCIcCFmCFQ8fJmAvNblI4USAd/wc65lVZtVfUWqVkHlyJ2dOuO82RuYtRhXehFm/DmdJHeUJWSyUjUinUzc1UCXdv1Yxr/oB6Puoo57aX9+B1wXyG0nhNxq6wdbYUsBSwFLAUONQoYAHWodajI2+PJyOxKHcOZnMVPzevJUf+dlFP0sRntFBzpn/lUuH4XxHKW+TISp0L1FUCv3G2tALWMrgPqqooNFnVeGCO69Quynl7jsT3T+KPoUUKtF/4ZZOlgKWApYClgKXABKOABVgTrEPGrjoAMhHsHPSyKw98p35P+SK2G3BF0+D+GR0/kSJyBT3afZEVvurOGlSlTX+8zD8kQi3UT/n8p9v3O2qkFPaQaUMc+6+lgKWApYClwCSggAVYk6CTylBFABcnorrbgGjkf+j8927Ng5swS2uGI3sid6L4fHz/ER0bXFl9hud35IiaUAruiQgr0IOr+hQdVEfGqLSyKqs+xLE/LAUsBSwFLAUmOAUswJrgHVSW6uEsHBmvclW688FdN5/6BM7GAcyRZdAQtWhc1DWjYmXEgKsutMfYBUfaMEIxYC2H1kObLAUsBSwFLAUsBSYJBejPYtPhRgGJcwcdYmv5X7rpN2yJhk0CmgSRpzp2+rVXuaLyMs/rYODS4sBV2JWy+VkKWApYClgKWAqMEQWsBmuMCD2BigG4cqOq60C7iMV/Y+rVEnLcq5VuSizPzK790pFKqn9QCthKwmndJksBSwFLAUsBS4HDhAIWYB0mHR00Exa3nBOrwbmD++/d9Y2610RCOTpEQ/BACJ8N4l6nVQjPjcgvSllxhHZm565AmywFLAUsBSwFLAUOEwpYE+Fh0tFBM41HOfboSfUrcy0Z8hhIRFrFiuxxU6+brqTzMSW0csz6TwUdYD8tBSwFLAUsBQ4LCoS8uB4WNJvMjcwJN4rYV/sPKOGu0w1J7aQbeehJuf57HBk7WqkcEJbijkGbLAUsBSwFLAUsBQ4bCliAddh0tY6N4Mso/cydh/fc+I5XddNXNocZAQGaKhNQFKjtA3r7n44iiihWNlkKWApYClgKWAocRhSwAOvw6WxG8zT9rfx7dLOvfBzR0sM82y+hgdSbpl13AuDcIl8h8oPU8a4OHyrblloKWApYClgKWAqAAhZgHT7DAJGkGFwU1kHpJsvUbD2eoo53viMrKhCvPYtyrHmwTMS22VoKWApYClgKTFwKWIA1cfsm3JrhAGWcPcg8n91VvWejznzv1jDNg8iyLu/PJS/R+WurZP6b/bAUsBSwFLAUsBQ4jChgwzQcLp1NU6CLSAnZ9AMi0ZTTZw+uWEANU1gJ5sHl3syZV9UoT50rlM46vPEVqikzrCbbfCwFLAUsBSwFLAUGpoDVYA1Ml0PxqhS+B5ervP/V7MqQHc+v1GAq5ledIWVkthIetWPhjS8e52OTpYClgKWApYClwCShQHgL4CRp8GFZTYS9QvR2V2U6D6iM/5CmQSrlhUmLejFbAyD8c7HEGc5IIZsfw6ytzctSwFLAUsBSwFKgvBQIz4RT3nra3EuhgBQewjNEVLrj8V3fXRBEbw8RYCWclEiYw6KVbFJSZ201TqX0mX3XUsBSwFLAUmBSU8BqsCZ1942s8vA897GBEGqsvHlwe2uoO/saxHad35yZ17wVhbwDwUVZMQuwRtY99ilLAUsBSwFLgUOQAhZgHYKd2q9JdF6K+pl2wqz79L2Qdw92582DwhOLHCcex+ZBqrAswOrXEfanpYClgKWApcDhQwELsEbe1wxBUPg38jfH9UlF8yAc3HMv7M7UmPAMLeFGb0/hAGk2EQG2LsjjKvpfWYBl+p10CP7MFfvvaCgQ0NCOq9FQb3TvWJoPTTdLn6HpM9K7hywdrQ/WwEOAGhgfaIqACqujIhDFINBHvuQv6wjofEYn3sQXmsomGGiVnozEI362c4O45a1pkUBbEjJEB/RmtDfhHXHE56eATmfnD3c2RDks/oWCsLnFadg61+nu3soxICoq5qra2jaVnIlzHlu2mCGSuF6IVIvTuHOm3LlzZ88Y4bOtcxGPTIPeMKPqTzbiK9nYeIPb1rZUDklHNqu57iA6zpw5008m12NcJ0Ic25ONhqOtr3IaGlrdgO6algOM3YatezHGp+sxzpIOD5onnMbGRU7hnO2hT32zEokbDNHzY7KtrdaM3zpc3nK40MiQYIh/wSNXgkcOMH44zgrpmLheNqda5NZ+/NTwyOWc28GSO0RxE+dWz2TRVeLRKYiNNOPa1pOlkhuFjMBxJ+Tt9iRQOUhkWtK3PSOjM2vDv4AxRwBIhMCflMZVSdHihRAHvX2LYhzH3CfmUmiSDyWOlxEqp329tUYHLzjIWer/8KMsaShqAvGgTE/Ga6Iq3fZnu246/ecisS6i42CFVpkEQHoiN2faNYuk4ybz4RlQrgalIyhlmHMKlcg4TmVMqa4fvrLnpj9HWbq8EWRchkdobb1BNjfXASTNlMlkI8ZMmGCVICOpB12yEXkn2H96SLMfD6EEOiaEbEwmNdAEHTG5wgOXjY0Y40gGcF1PGo4z/ThuypVGMz6MUECwHw7tzbg1AgW14+NN71HRGoTEMIGwRLoIsR7jx5yrOqrcBnipuXmlq/lGD3idCGNzgIqWdMnwSAhBUo8v3dblXDzDSaBhb74Tf6xpRhROy0eUi2F0hByhJ2ZZDB8latKLoyuciCOjFUBMwEPdbbCmpbfJXPezUE89j1xfQoyDHci7zUGgA/gxSd8XMcCCKt8R0wBEjwLGOQ7PvRkVeAv+5siKWkPXbJqAi5VC1E0Cjjxiw4VQEsHVULRUyheRGMBVe0fOlY+EUuZBmZjo7WjdhY6MA2t2ElwiZDz7Y9hE2vBv+IfHLdBoAehJSrZNtbT0tmvOWSsra9zqYzGCTgBrOR7VPEZJOQuPTcNYqcZaQ1pIdIUnpZPG73Z02T4E1t8hpdzuKf9lX3qvxKMVr268W3Ykk8bcKpL5MqBxbFi1IlJb+zYVzmLYW/cx/QbGSAl27tzpfksLtpkmhEITA6FGzL3wnqnxXPpYFzTE1eNAQ8RSE0dink3toSMmIkaKD/p1g77tmJ97cP81XHvZV97WaCa+dePDl+xIJhFItyclZEPDD6OGfoXXex4Ygy8TA3Bwgd+KPmhtlVnRIrxkvuUnn3fn0TKi6qTKnYyjQ0/whToKfG0K6MoJjcqrHMZqFx5vw2zdgyuv4fMl1xFb/e7Ii6lH5J6ecYuHeoBEsqlQKs2XNsE+8uOyddmVGJNYDwrowpqefN4vjxZu5fEYeCdI5R8LPnc0aHKEULIW47ACtIlwTOJR8HjZAUm7DUx5F0bq647vvyId+bJMR1/huGxp6Q80EoLCQFvb87KnfBY66VIhj4QnLrXI4JHJfDs4/zqnzpmNn8e7njgefPIY0Ooo/J4OWoKOCnSUoCPnicpCX9EpHbUfY2wHrr/iOPJFPPuH+P5ZL7e2LMgm8SNIvWP6NVNucGOCfPZd2MZCg8Vo4qCgTiydX/t/mrsDXw9q3Oc9XKQGyUfGQwEOFoSFDszbg7YlJmNVeAfsJNOxB0U+iMlyp+9EHpzRWfn8CzSnFZlmJx6v6mqPzo1I7wxU5Hw0YKGMxo8VboxlsCzkqUAATL9SE8EVRh7iW/XSM8gzoJGXE07VdOF37ntg102nLtS3QzcRmkKPmX5Nq+tUnu6rLlCZSph8H/d0blC5wk+q2MiDe0ZB4U3zffw0WLK+eWU0Vd+cKzSp1jfe8SaQdwEW97OxuC9AJU9C9Wc7ToUrHXZtkEz72U1BMkMz6BxexV2MWwwLD3PiDZDqD7j4NID+79C5rZUHjny+tbUg2j4Wg3qYoVMtzWTmvRkHBUzATzJXmpVSqeUmjEe+jiddcMfbHE+dAZq8C3Q4HQvWW9D+WY5bAT5bKPcNT0fsjoWiHdpjlduP7H8Psj4Gyia9WOyh5+65eHtAloaGxwG0YLrtA8CCu4fyZ8Kpr6+LFPZB3cI1p0nXXwa4egnoPh+bU2r7j9+hxi5lN+V3g+bebozFZ9GHDyrp3jO1e+rDjzxyNsGYBg/8nIj0JrCh2a+QJic0rquoEZ3zsIycxXEJIHkKPiE0RWoleDiYLZuTT6RO7xQ0c5u3euc3LR8KLB+04rh8GfdSkLSegFz/O0yGzc8nl+3KZ6Y/wG9iM3fS1D1egkBhbUbyXTknXro2+sLaS9GcXn500gX3zpBe92mOcs4COd6JnE7G+JiD8VXhODH87KWR5oEFdGSphpa9zyicCuJ7mSwI+QqKeRq84gHg/uSW8y99upc3K/DrluhE4429rWDLygWwOBJJNWiIMLiuBHGeRsHVGH09EiyLH00CpIo6EhKDkB8Q0YrrVLYTK/ZAmiKJNRGSmBuNOfEagI69lHLvBtj6RcSXd71x8zugpSpIBCIi2Tuj6hrhT5O/34zPLcle2vFeM7h8Py3LzKvW1aiaqeejPldgUFzuVE6L+92Yaz4OQZaicDUuKHhEX7MyVh1F4NBHfeVfDekKNk0kzN7Ct6mQg2UzBvq8tPOm036PwYw6906EwmdL+35ldPb0qWdIV8ZkDpx3mKQiqJnvd2NQHAcC34Y6YdbpuvfSNMgjAFii+wev7L7xs2NhIiQoaG29EuPD0OrtC3/z5ogTWYIqLUU93+W4VVP1YoRwFOxKxTOtOZah3Ayq3fupac6fffqm577COJNAygijwTw1uAAJvRx2feLcSGi6HoYUfF8uk0s+99DlfcBCH/DVk+HE+NJrpssvFgCHJ79RfQ5auhgLzkXQiJziRmrYaJAuh94HQMInBoAHQg1Aqx46soH97ut7GOYulIRYCAl0sbh5uY42PLseP/7XyYnfbHpw6V6+TKDV2rq6zBKvmWsnXromHu9S/41i52CEpwHKDx7jrFTxiWNtKgjxwy3JJT8gvQdamM1Y/gwGqBD1jStrhKr5IOjxMQhnZ0citfnxC6DkwxXk4PGbryvJfRDf4D0QHF1I8CGjyCONhbDrRbCZFtdxfrJx3aXPsVxD7wJBgRfHLSXgb7bUDeaOBlWy4wLlO5ehZ87HADrRiVSjdlgt8nMbQIkEIL0HGHdBQw6iD2+ARpi9+n/MbS2AQaj0QCc/TXD1OLJMQky+d9O6pa1BTppeyxqMRi24OKE+Dwbs8y9cPRer68VYTy/FZD4bgtKR0jEbyklHXx+dRm0G+Xx/WgVzOyBvv/t5HumQPxKgcfkAf1S+ghuTWCWk15Jat+zpPImosY60tpoxP95k6zvZywWwoD7FTraoynZt3XXTaTSjhZ5mXvvELSI+9XOqez8XxkIRmBPDgxkwqoFV1z5qq36spP/T3Tc2PNNTkWblivotrkjVeaJFL5RBb/c8MvwXDJRmiDnMR9TBh0YSxOk085on3woO9nlMr6tkxRRXde3nuTW8R3VPUQkVy7hV02Ne596v7L7ptBtH9DJQLcobRZtGlPuoH5pzxDUPOzJ2lqcyOVCjsN9MnmMIsKhubtFO6VBxI9U3rb4EEv6VoNslAAPgutCVeJTacxBNMaa4WCqMGzBQ3Os7l4qiCPoF3ALlgAFpoM68olqbA6bCuGJ+rhPgQN0HS/NtqfWLVwXZm4W1kULFBOhbYyoodDY/6dw73ua6EDCk+BMAoHonUmXaAzriC6VSCl80/QFp4a+0RBqwbzDVBBa2SMRxK3GJgLXjdVz7OYDd9zbfv5iaQq1hKawrr4WXEmhLwm9oWFXVXeO8FolPn0IFdl8tyGhLw3DR1v9pIt352r9uWb/krw4GMQmHztkadFHzuav6r1DaX7luzXEcx6AH6Z/BmCPNyYNGN35pHtMqRC1YQQ6phLAQR/77gZjFbRHHTzx9/7I/ojC9GUQcZCZDyWOSEr30QHknn3/H8Y4vPoWvH8Q8ewsXbuXDA4TjUgqjbcXprbhP+oyONngxnzguOSYxT3WKAJA60BoiZ1zMUg4Qrfi+MpfJ/lcgSOm5rX0xBxLcTEZj+i+UDvSbDIA8wWm13/k+zKkrMCIb3WhNFdujeaSXAQ/F+sdVBzQEAUqkI4zWmknq8UaeEePcJmj1sgdQvLgHpXwvtW7pbzRNqCCBs/z4jTfTMwcvaGXoMRBX0XEcAGsDs59z9cOVr+b2+WLG8Rx4o05z9u93X516VvrIzoeqwaYvkzla9QxqwScuqSxFWjh5O6r7wF6/a+9305Hs99q+eSbU2kzos8QWiLs7DBiC/d1cH+2/WOSYR5APGJuoryfYyu1MSGiQxF8CaN2CutyEOl2uWF9fe8VTbzrSRB+UmN8FE7VyH+BLNE1uF5U9YO7gjNA+2Qv2Dr5f+pUGcWW0Jx7WMNlViO3q1aOmxN544+YO9MBq8PezQDkyoMETAWLZkpFqW2DfZxHzm9ZSy/K3UsbeJaNRzTC8XBvVLKwj+hMaUmMHzQ+3koYxSkTbwKXwhUCDv/m/D22AJ3KdEAqhmnEi08GQ3w8tz/vrGldvxgvfTiWX/DRYQBt3roPDcl5bxCzGOGlNyTL49SRMHeoWrT4P9eaifpkbgbaVIBGLl5c7YBYvn74rUHsEvVoqCU17mRvyNT8IhHW/wU8Gi/6bYJ64GprBqwCcfwI/y38AvV7jkweDE/N+GP++EetSU0X1rlxm3xR0KtA5F5qgsUHjWRKvFf4erPT8u47Mwb0TPg5KqzoLnw60Vsmk8LWQsNP5F/TB230ACLQf4xhzzaEwQ81xicmAYoxbXXcowrqzItetoJSNAUx/Kpdr/2B945rrUkn5/8gXy0nrwVoSlEl6nNK4Zo4n/a+CAh+D0FSptSselOm5LlgVdCMYkbl0uvStDInjIl8CNiaIFVkMToAQXSbQllvRgLWqQUQ7vgY3hNvg33tT8v6ml0QSgl79ylihKVPnMJb/AKw0rGp1WxMyi+r4p5z9q1lePPbnQnV+wolWwoQKjZKe2xhbFHDYVrNDTNMxGO2lVZm+gJp+5L2cKr7vd4GpwBqNNd6NVF4MTePFoN2juJtIJeSdLM/QbvxcKsoPsIByMGxd7SOlTKDLV6emsyKxeAhAQNIMn16lxu078Dm/trXeke5xGrCYTkAnQ+lbMSUGMANj1IFbohH19de/efpOnWvC7DLCjjAAq/wRL8MXV/wTlNY02CKQM2XuTNBUJ95z5LVPXoFJ/gNZUV3jpzsyGDMjndSIa1XhwDz4QpXX/RTVcdtFQze0ZVrrUnwlw3mjVazQ4GTEub2R0GDWlf5dkOy/jgnD9rMNlHTGLhEEtyz3W1sT2fmNd52EY36+LZyKxZCWMIO7fJGjJKanNJlG+edL0HKj6tALFxgLKgN+7Ocwm5QDZjIPktut9YvuuBo1+0qqZcmdSbw3ToxYolyY3OBj1foZYYCV8zdYXy+h2dPLdZpFne2iqj9Y1M2CzKvlTFzQCIgBjTM5DwAD3+NuZMpnsWflw6Df36XWL/kOzUXlot2xYo44IPdFKWmjDtiazLHEFaJ/Guha/2f4O/8cFmttnoMzaeFTAZjgtfrG1bc4TtXnUDD6oAPzUwspXKAIIsqRWDkNmkFwgNt2bAlyq2FyuwUL37vTlfLPWtcuOFBYx3JUojBP9iv6V4N61OE6T6q/dSNTq2iC12CTD+u5FgLYLCx46O+kEwUM8xTcCyBMaf4NetWCXn8hsgc+BWB6c4eo/MdUsqnbgOZet4Whsw/vru4rACvYL336Vrle5mpPqc9jDk1BnWHu7GKYAY4mNoZjcWx4pAH2es2kzgzjm4Mbs6HyTHysRV//2omoL266d+lW4C2HYSLGQ5tV/sUMWy9gnnO5ky0i0g/prt+OjQNhpNkIoInkKud8aITIwGkeyLI8mOGiovvAPV7OOxVmtC9ocJVIQQ9MsAMpW/8l9KAOoypD5wHwHZTJBR1ga9eNp/13LiLmgy4bnYqpMYxQI9kPnZG5i40CQK0PvvodOJPStJkoE7scSV1G/cz1msW/vKv2SczdTdAWMaeSQXcx1SHTyk86Vde45ksQYzc7bs1i3+vMgXlQ0uf8IMMg4whnzBZTwd5nWbZhXhAXIS16MCtkYY45BQxlbX3THbe9/Zxf11LK5YLS+1p5v9GkyhJY7inwUwNT+wX2jmyAtuQS1NEHuOKizn4mDbmglJ/fsEIHJ9LP1IFMAlo0VKXGjU39ZyxiD5/StPbtbANNMqhvGfqZJMAfDRnhpXxehoXReT8PJrKnnH3XLIDHRyOx6Z+DaRmrdxrzSm+uIQ3K0L4BG8WxEaVvF+ntRqcsgS/aU/TVCQDtgG+FdpHm6nXasR/j8lT8PRmJTv0mZH2AK2hRaZIPxoSZ56GVXHRGZl7o8Ul/L10/qFwj0Sl/U606U/MbV19ofIqwjuTnXNFlFP2Cgi8TfRWNVh+C0+ddP7OFdYLgNIV1xMYSEtHwpXHkkUEd+Em+Df7tudHay/2cTM1btIZ+u9jVuNwz87toQpT0whgwPNhOGVdKiSffuPnMF3VtZ8OBr9SUACpN1GtQAoPs+QCxYB0yLStqYNOB2Jxu/xQcuy/e+50FmzAoY3pg8vnx9kOiVgtg64TEuop9/3Tatl3bTjtddO+/W2vbhgdZGEMY0HQGhmOkJqH296L2dLIl1rkZkzPBSXp3YHEbq1YY5vGZbMOyVVVgvqsi0dqbKf/ApEQ7c34xHqvaFF2OXrzATLKUICGRfzgSjabmL1p7VnmBQm89Sb/8tnMNTn3HTYGpfQAmFwXwl/ft0Yv6WC3ovZUb+huUkxJx1TyA1P1pN1IF/z9/E8yuH+oxsY7ZIjZ0RUd217DwPbFMPAC6Xiz3BPxhzoBZshuMIgCXI8su7KeoHYLJDX4y3TAZvtnPyt+dvHDVW1lXjqGwi9P50f8Gif2Juf0pfH0SZZ+aQ3/DxA6fMS3NTbRxqauOf/T4xHrms75OpGIuNOr3AOB8XT+A9UMLhsHTZfg0QEQqgqv5TasbIIQ8FolN+VdoTGcZGmYNDcdPYBqq1eTdLngQNpS4FU6s5vvzmtas5A5NPR7GUABlJccAYLEUrgdqHQuEdTQWjjlrka77Edc+PQeC4akqB14Sr6lS3e0P5nxVt/PGd/w7ypR6Z2QLzBcENhMobUs0wawHWiAmEIDgJYi/defwIAugxHEd7JRsz3nqQdMcONNP2jRd9yGs63fS3xYpMBOWtUWBpP+281cd093mYDGashQLAOKvaJQOaWDSpCjAqUOgAM0RY/Q8XN+49qMGKBDAlkUb0yPZ1l94z3F1i+5YH4nWAJy6lV4GwIpamrw6cuJSEaQxEnccpgUy4mgkUvOfdYvWYBED3cgrJg3I0hpCsfHuSzreftHdsz3HfQhg4hjssmKohAr8TRAgISsg9xJkHYHdB8nTzlszkwt4oAVlh4SSCK60u4RUMJH+E/ysfgTBSeAkCzIYRo8Gz9H9H0px5ckE9TPgJQ7/lgw0kCoSm/ZVAJ3fBIJhucYneWMgaACYfNUX7uPQkr8TgAX7w7O0MEwSGso4ddVeth2a/tpmsbPqCfrfEdiPpZa/zADLMDI4t5NtGY1LyCMS9tcFCOEyQ7pwok+337zr5tPO2/ft01/S4IVlITJ9yEWGlx01avQjQ9pVffsSRFtvxU7Hwc2FUGtrbaAvntJt5AKaKNUxP7zmFJ/ThRocZp3O38I3clvexWlgwBiS5pEMipNs3sLbj40q9zE6/wJcQWul/asgCUx05nsQlbmAxn0vDYAIx5xI1U9hMvxi/ineC3GBpdZYSC6MdU13XA7/NJgMqhdC6wdg5XFXZf9gQQdVdgJeICOGuqDDi8amfBWaAghmSJMFZOVVv6dcfFd1NJu9C4DiaACZNEYxt09OoMR5BZDldaYh0MzOuOJXrJzRgoYlCOjxqScw/c9gIv2KceqH4GR8PCcQPUZYFTrcQ2ihEAXz3LLu2jceOLXx/6YZhYHR1I0wp2EfI/Agb2T+MDFjLE35Ov33qClH31FLQu3QJEl6GKC+KkL+jnlRD/+hJwJ3gLECWWUGWNJHjBTuQ30ZAaB+Z3qmjii49JRq1BSES8UyOH0jkGfnFQgBcY3OmA7l2nxIKX6CJwJArdWjP5h/GUDiXsbqQq0PphO38cNZFsmAVb0DchK0cdAu4NlSCQT8+z52Qqn19L0dNIWwi5DSMsHBqY3rpiknusF1q2ZTg4EyacMOEYgM2opy3sDAwLY57BKLxmd9Gwzyg2CKPtT9ZIylJ63RwRiFdqCuafVXEVT2djhuV0NCpNaKQkE45ZRe09Hk4KL+Tg6hBaLx6Z8A7f5DZ6K13li0J3DCtNDjFnEYf+pGp85D/1NYmKBaWM2O457XRp+sc7HD8e9JWpyDOMTEHznxGZYCbVc0p9H/DCZSxhtk/03msYkmsQ0ynsvua4/GZ56ZFdF8mJbwNjYF4OrkxtXzsiK20Y1NuRj0o9YPnUZT/6Tlj5wfWlMNTdxMuAM8yiDHY6XJ4uArZ/IQ/JP5G4dsDXzCGBTobJjWZl6VqoGH17mqc9cHoLn6mQEqVBGP33b1URETYJA+WbtuPH07jNuf5u4rJPaN5ki9eUoX5kFaXO8x1xB+YXInVW/aiVbItfmo7mUak4h+mDcTZ0Xnb+AvdAKcsBn0ZoIuRkV3LMcKnTsj2e6dd0Vl1VrmYOI8FZ1Xnxe0T0aednWNd/xbJDL165BqYVGFyUBH/uvz+GT9wY2j0Vx6byYSn/YRmD7/RTcEZ6pN1AaRT0Cx+9q8hasudqPT3g//GAplFBYmapVNvRCiA1oFrtlfm3fer0+h0FOqXxEBgvG5WvtR+FN+FeCAMZgYGqFM/GSMSQwfCky1mmx6Z9r31TdN6YlQ2haAq/pFq5uwbRkmwYpjtVbfmPon7PgvrgcktPxdcKWonIrjetbDN+9NBFnldnwPpYOGayjG+F36mbB2D+YLdKpyMxEv5HM7v3XqSm1qu74O2qAwANxwLQr/vvbJgrlwz02n/1Jlu/8H5xmybwq1WJ6MxBzoil+qqtz3hK5BQp/1FX5lxjDHlAnNILyK6lWIDbMLwhrbHTpwbGhYoVErnJlvwm6i8+gECQ4P9D/BF6OR9wW1AnFolO5KJRe/+6lk0z7j30LNaAkJmqsen4zG1f8VjU79czDfLLgu8wVNDxn6kUiMRxbl4gyn3r+c17jqr2iKKZszdgndglexYwp+p0LMU47zT4znNGmS8YOC2aZWKjfyj6y3OTlhdFoSgjOtkbhgDdCw/++e18ksCZjHZH1jYeVLGt9kadWgQAM3gIue2bBsTShzG5Wm8zdpB//DSyG53w+tNIBIN3gjgfqhlMinDMiCW8ib8GMNeFdPIN5ytbSMAxBAB72FGFQZz/U36AaEsXtQZ0SzmJI43ubFPTeedo8OVUBTW0h+OuUi9rD57m3QiyFiWvw1nN6xE4v2QAJG8gr4WkUryTHWazC2EuEZJv3q1stQZVfHR9GeIxkDESlUqYkSGrc5Y8FsRLDOL0PSZyRgbWtlYZM+IfI0QGPcz+xfQ3DF9lAyCzR2o28fNcVmcwjNZm5s+hU0oyG/CMbj5Da7DE4UTDaFjQPQsDjx7yLi90JqWDiGBn9lXO5ILIR0u/s4+MRp8G1ClwxlYx+XOg5eKOYffPeADePLSGNMedXc3FL8egSn9p5jUTz1ExmpgtZKo81DYHySDSJYthNDuIssPtWiLeuXPsCxWPrczsfNwwawuqa1FyCs/Bq94RPloNBDDFwFw5BTxJgLYU4/rb5p7a3BHeKJ3u/hfSt+QI+4bJxMxMOUhWplOAL9WqjaJQOyNLiCuXDE1ZrID7IdCRVhOAtwzh8gPhZriwFPPECUxd2x4m7dhMKzECdymwatG9XbN4AJJnJzZlz7OdeJfz+Pq4iwQhzsieBAVwwY5zt5R/ogxtWgtZskN8gx0jDZxQAaV21ev3QJ601wFWidSmpHfsGD0/w/YxfTR7RPi4lyHWL/lFTD8rxsdnBBS+cIHKfy3yeeuWYKpfzQd7yVXnvTDyam0+TqE2qXoLLmOYauL64mKVpGQQ9GGOdrMOn+JczjZ/qMyN73qLRR5DpBXjFmQYCrTBraioWb71/6cKBxKrWGgVlQH/qt/DsB0hkhjrQ7dATPwYmEsCH7c65bTVeAj1OIrK9vKUu7ywawyPmh1oRSKe+QbTQugzd5VHewZh4q4Cpof6pFw2yAqX/zO/fwvMI4LmR4liLOWezKOeIh82ijVvUEr02uTy0tYOwlcscc8eUvOCJ2i6+48YlhEsB4Q0zG8RXSWtPqT4MBnwpJnxJaWSZTiNUeSVYcJ3mz4IHbcWzOZXyJ5pIwwJXW2JDxNK75nOvWXg0HW5qrtZmV5ZQ1wbsL+bM8nFWIsc8/cz4cz6scK2EqiqNluiHpzolXKu2PNRoAUFY6mcw5DiYXuAqIAnMsTPUUGi+b37jqJK0tLSY8htZeIVbTuaunY535a+ykzedcHm1EUO3yf6I7Ca7cWEz4GYRLd857Jrn4tzw4PMWQQyWmwKTKgLQIW7wWWsQIsC7zBV/kcCprYgFmbnNO985tKhI4t8teAZSh54s2sUv5r/MW3nUsBahyhL4IdTEr6Bacl4covhnYwn15v74+6TUuBa0r59eWZiwuSu7+9oJnIVWskfFahrjI4LBslOo83qMNvH5MBmIZWkrmt1yDq2OPuPZLCLn/HQOuaBvUW4HDLFOfz6c1D0p+ccz9VHqAgiSoI1PhdnGCh9KTFFmaBb3MgV9tTi5+LzMk4+wxl5RQQo90q88TdG/BzjTmRqakGVMJWQ/+KmlFZks6IdYbzCI8qDnqRqtj/MORL/iLw6tbB9WjBpKgKxxaDlorFfez+xFaqvJj885fczEBQLmdYgetyuA3ytcng5cZ1h3WPQtfLMdX7geZaf2WkZueG3HwMN9RrvwU5sKbqOnBr7ERnszY45zu/TPzvUSAQJKoLBzNY4iU3onBd25q/aW/I7h6Ye3iAEGy2aNLBSZVL5b9JWh/FOJspTGfYAIvseqD1ojWJghLRkhC6Fsewl6B8xerzNzGJ3/DI8aYdQM+MGh+YdyQAJU5hAyprVEy990wchwoj3IBLJ6XJ1H/l9F3xiE7tbNcvTdQuybxNQzGK822Zfgj/a8G9bRrMT6eVPfrhnE35qT0N0ugEQRXLd6c6ddcC+Xczb7CQatmZofuM4HFUOeZ2lW9VB9263WTGZaTAbMtlMJYDuBi3MHiHMGRNmAm+HTjLkJR6I40z0BiKx4kaGZFsyCOq2jBWXp/wrIIIsMAV5TiKM3RLAZO+DO9o1XqKLCh9w8HNKqu6QVpHbFSp+DQ1uoIo1hjsXwd5p4tCKPxuJfteAyxnTZCo/QKTOdYkKsjfNbQErTOO+6RDiEnVpB1hKCovs2PvHZwMoMaNmPCJBDSQV9Tb/0eVkprEkboD6P7AuMVItsnARL4ehnGKLPNp0Bgwic2KGJuV2BOV+X/KiIcwxjTHBtmTJtPM36CPIb7xFwj2MBYbwdvOOeZ+9/9BAWeUMAVyg5AKXbRfTMSnX6uCetRJp8rzdu0cCkxZ6OIqxWjWzGAzX5oG1/AnH4yP7dbscPv94iyvx+CFfZyTQUzqMR5mdRkU6ul+cRwlCvyvu4WbAo64CH47fu0kz8EqLA3tJRL5Y+IhwDEufTDe2551wEcqIzQCdTM2FQMBXzHT8p0+z6BPdgIQoqxlo+GLxqLyWaCPEtwlQLzafGOmXHtXzsi/g2AK4wJPXmGZ4ylAEpf/BmOxiUdimN2xVGOoArMthKH8Lo8SBZW3syrKPANFIsVRPs21OKZWbg/XTMQIgPsBEN4Cg3I+P4wRSLkoMrCHwo+V/t+kUou1VK/cWgPJzRJMypAU1hFpf99B+YxvV27LE6vxhzARcrQq+OPvp9d7St1n6PEZump12Ndf2zvBY0J58Qzz6iBoRw7gDpPAe+9FFv+3gMJ9AiYfUEW7T8C+oVuHoqgjwDqaubNW7T6s/Bz+zf4wUTDMNUM09eHxW3MD+yMpuJSzKc/0JYNi59kXKzWVvqeDp4CP8P6HVULIbi8XeF8Tjw93PwZPMOh7nChRwxCAKiI41RoQIgI6/uU5/8RE7INoQ0w/lQVPmYgm6M4tykTa9CncFg8DjnN100zoSGKSkNLy+jtB6SXO2/zA5dv1GbBMDRXKDSg2fymNYvAjq4DDzGbfcLniswR5nwnioOrHT/XhmOpOu6DjuAO6fu/8/zotrbcgX2vPrKcpw3odELjrRWV3tHTpfJOFP6+hVAovA+C6engmwx0StcALhTDrxNBhiP/RLYILynEP+KVtdzQYnhIOKCuHAOSxOVODtRT3Wfa2YxypJ5FI293WZ6UkNCdhq17ne7u6VLUBWXU40tKVGydq3hoajLZWCbUHJQ3zOfs1WQWYu+3Frx85DVPPoVI9Y1+x66X4zv2bub12a0rYtN5QnhBSovdCOg0Q6VEosx0TkROFLsRN38G+3lEqQNMdJtIYeC2eMfOuOZrUsT/wYArDXjKMWlQL27BlTkwqCmyy19EIINUjvHOfHMECljkwQw6H8RY/4WSbrKyJvti66plsJPnE6Ttk/YcMS3ipd+MYItnoIrvxhy5ACChyvd5Mj38IAY/ZobMMAufIJ7r9t8AVx9irgHTDIoo5ZPSW0uLidIunaorUA4XhvB3FMFUAO0TzQI4VrNjM9jbzRW1fksfWh3UkIT/wqMCW/v03/P4/F/43nw55xz4LIDWVyAh4wDaDi7K7OPhFjI8MvKE5dOBRoHQ7RqMp5+kWmCqQV8GOyxHntOEeJK8hYs+5m/BFDZnFpKnlGk+DtV2hfM0q3EOaOciPPVkd/fWYftv586dmv9hP8ISaD0IZijAl6Pu0DI7LuqHnaVt2xHyfyVW41Vpz9n0wgOLdxa2itH0vUz30cLrngdOcAGG4aUY42/B+wAZnZxLxAmoYwHddQa4DGkMgIIhEvaBd5ybemBJKjSzoC5DwV1C5rCJCmL7mh9g1yCrQ+1vqH5XaInH1kEgwS7R9u5ctm2FHxHfe/a+JZyzg6ZtyY+TQb+W/3sAn1+ft+iOi5BXAi4CZ2Ns4JIKgCq+h5YoQEGLVXl6/aK1H4Q59uf1zVsgQGl3hZILKceCg/0hLiINIKJwRG7QNdze1X9ElVzxkWeQcBoajtYTT0vDUAO2GtUtMdWgif4svGnis4SDZgctrP+NRMLXcb3MMT+Pwf+qUcVia/5424W7+ej2VZ/p3N7/nTH5TVCXyL2QN4EVW+ScI65NAFxdnwdXfF33S7H5jOR57AqJpFIiU9HlnY7t9kfB/4pjcFjGPZK8+z2Tg4o5Agb6FM5Y+8Lm5NL1/e7jJ7Uq+B9j71kh2If8exx/38cW9eOFd+CTeOTzbmzqNKqswfSAGcDGe5Ief7kIVOy5zP7bYBb8KG81NibC2S3IzAAYWgGutHO7L/5ZmI255aBXFrt3YN7s6Mhl2/8a285vYfFMBIv8TDY2ImL8Dfh2fT++cQOOhroeZo4bQJtFNNftxUPfwBljt+Vy7bfiKJELsQgSQJB2odUdlcBhdog2E6l5c7y7i7RfQV8hsA8tCOH3xE7UwDhYTBHgk34u+o/rvLZmoeqI9UDhgD6K+KO2hu0KHagOQiT0kw5Fgwr55+CZ76ZSW7CQ6jnTr/+DHJRMpYzAjqadB6UubxTMl+C5kj89aKJc0gRg4W/cePQWnvnYN9dAYypV/h7Yo+Df7ZxL/iyxDHD2izh8+2wKeTCPsbIFbgpsPs2CVTEIWXukr85NbXj3M/XNqViqpb50n6t8ZblLjvywfv0dX4OQdhL4TL965B8s7YOBhyOuW0kN/i+dnLp204NLt+oswV8ad86UyZlwFWrZku/XwvmNuc2EwL76uWSTt3n9kntw5R6EU7gaY/Kf6buFvsDY0GOTT4eUesbfF5Dhz0H3DIFoGDE1wwdY0JVClYqJ2rVx1zdPNag1r5EJiRojyCbhcPeYYdTSh7qZ0o1O3HEC0r0JRvQjMSdroKCOQfnr4/8u7NTbA5+x15976PLtvaaJz2jGH+QV5FP2z9mVZsAp8bQPPh5547XcCWJBY+6ty2bInW25g6GJw0ZkK/d23vuCuCW0idnbTs3w/GOnf3meL+XJji/T2F9t6tj70EHfiLZh8mkDC78UypmrfUWwrV8rB0PsLb8OWkmsgEo6p7uQcD0/Gywavc+U/g3OqFVRgKuHUjM7FhmNRsKpb66L6MVXb1ggOCoE6Ak9NimBp+qE90zLkpdQjb+DT8T3EWrhJhw6/KFeaY2+d1gcsfrBiRcS4f5bAa4+oasNhpVsWU5mE0rqAQwzq6+FRm0uD0lFxgULQQjFQHOFHYkAV22/84Sz/Nn1l25jrmYxqctqCZsXkvyHKaH/LfhHwd2At/PzGWbDS8+Ibly7+FU8cxFidX0PC9lVYO6kC8H7sOMTz4wkMR9YL+FO7XufwfcVeV8hjGEy54mZUGlqE8CP4zBd02k6TU3PXqx+f8Sg2oW6EyxwfGIHjQI/FMdBkp8OAOYAAOOSX4bFbCBa4bh3rZyQ83QYAu6Ua66DhnBgANvYmETwW5GDxmiWl8m9lcAQKVx+os2CjqvrJeUS7NK9k4UQNFVU7FWtra+BnyTQ94VzGzwSoU0ats6FhWQrQCDakRK/xGu/xPz+GEbjv4BfTPH9Tn28FPMDkWEWpOaqc3dOeuc8t+Hy51iGXuTNAyX/aza/4JDjc1cdh9FwLbTGKBZxFAOAXXIJOgPE6YoyXpfIeZ2f3JJc8hNe1W0BnyNvTOrHCv9JFP7AOESCf0JSf8m/m2rOptbJ78xrXPskgPRalFEROshCuFvQX8HUfMa8hWsu3rxh8d30VUM9Sp7bkXxbwvugrwzCM4hs1zqdqT5nD4hwTJKSBqkvz2AC+uypk8+782jH8RoxERoxwE8DYzkBVZnuAA3T90MPMrJJrmMwA2Dz0gEw6lcxXVsxCNeku5w1kJQPMC+aUIyNFjmUO+W1fioS/b37zKPZ6N2//Zx3xMWfk3uBnejfVpgooDo4j1F2PAdwdVLhrXC+J3oWErCQ70WcmoW+oPl8+OHDlcnIeLClK6rx9ZpXPDMs8izCmTvzxwgpcXK+zHBIkc+FixektSj8A7JQb3yKDIQmgo13X9yZahnKHJ7w9dhkPkBhZH40V4OBv44rHwYjvg+ftyLrCHxTMG8cRDupjQJ8/RjPfJqvabNgS1No4CpvZszMu+DXRylPfsGYU02vsbxQkgZXNTBvtv8GIPFy5km/i22NH8ukEkPRa6jSYTZcK9KaiWMxQ75/gXAccKid8lmAuHABIrya80z4dJzXduEzyaX3YqGHGbp0JjxUC0u4h11bbtSFGRaA88Wcl/kFltQ7o5n0sxsvfu+ug6VzJU88b+2RcSc9HydJNGN8fwya2QoID6QjJ7qeuCXUZ6hXwX5RjBLHyd01x+LBP2gtxiBvBObBXDb3Zih6p1P7FnqCFg9gHUCz7abUuiV30lw3p6vSw1owxFqGtQ+gsDXQbEIIOrG9JkIHdczdn0LTei+izP8KmtB3ok9IVx/+WvS52gESn/PcuqUvsJxUSD5XeZrI2tq3afCiIs5f4xghnB+KuYEQGSHSLKfBFc9xk/LiLesWP0Se0tZWy4PhCTJHlYwQk3BOaFwX35xsSs5ftOp8+GlugFkYmiyPmtbi15GBasKYbIgnCEEEfZH+BL7fHcYRYyxq+BWSTxWXHDi3A5uoe/RrY2QeNOaSG/xUyvggnbxw1WLYmUGs3CUY0DUUcKhKplCm1eGQmCCd0BhjkDO/gYmAj04Bh67DgKGH1ofjle2vg2n/W4eqvrE1uaB7zEDWim9p9Oz+5Gcvx3a0d4ja+DQV8zwu631ZHRdCmYbAVQGUeLvpqgT6NRHaAow8OQD9Y464dg644Ds8n/Zw2hM8aglGkPRizfYgn3DFpoELp79BIP3KY8uxyQyDRuVV4fdvSi57lia2jS0XgzCFEu3AtSu8GmhKyZB4HQz8pzAbbnX87N3QBGMbYlx4mf0rUuuXUnNiwFUyPHDFPIOkfPcvcNzODI+HvA7uCxY8XswnzIIAV7n2ewJwpUFRcnm3SH68mHwGfJaMmLsoGd06tW7pVQCpJ2LOX5RfxMJZSHqYcEXc8TNXoCL3anPHgDUa54sAs9CKxAD+O3yv46szRfX3k+sLxszDQf0CEK1Zn3rhAUGfovv5hzH4TyLb+ROAjPNBx/JqssB7eQ4pxnuVr3InoPw/4G/wlNdO4xzaY7H1FFo5bJYx/Hvwd4q5Y7RXOkYXXvsZX42/3K6SqcXF8VSMxxc02IJWu74usjGpNa1nYHyugU/XpdSOoY9ehyntnE0PLt4ars+VaTDmhdMCYay+8dcn4srHAZh5g/w8nARawUWNcbSwJ8u/cNP6ZY+wHcm1jQCixfHCgSuU8LclRTfz3LR28SPzmu64Qjrx/1F6DdJrNwdvGAluHtDsCbEUQHiO6asE6JTQ6/BoCwiP0KYGPrRXjsplXoeT7KP60g8bihuUo2gJQU8ySUCR8AGGLoMG6tFItPoOSP5/ArttDdTdOUq0dGbDhg4QDE4HlJeIVMg4NfPU/QRciPO2vW7Y3DuyZNAAWm84Wyk4AABAAElEQVTCdtYbqkXn5rqmO86kBivwzxpFVYt4pUV37I4dD+9Wsyp3CYQA0rKy8c3RHBGZEbCwLTFuVAHDIXNEquO1cqR3Yd1FeHkdEJTgiuOHdeHnQH/5ewRVgboQT5Y7JVinYHLD9KG7uxyFshi5hTlz40RvmcWXBWCV4x8ZyTP3L9mAfC9gLn6u/YcBuCKI4zPF5z7UGwSjTblTG9dNQ8y6z4Dhs03sy5CSZEwfOrxuc2O7dbwugkkjnYZUBLIhuApAKn5+BOVhy3eE4CpMesEhVm98WkpXA2MSDkBKeG0pMSft44Z6Pu36kfmb1y35V/YvAa12zDf6ZM5LJM4RPU/IL3BNSQJVmukwBl8CGL7A89r/E7GSwHz0dnv9Vuj/GJEx58CUDx+kuSPOX/rckUsenq//iN8c+kFYYXR4Ejpdx92X+fDMmTNLWGgTEPyXZ7hOMS9osxZjfD6IdWaf9LNn0E+J/RNWKAaWcVBSkc8ybh7WN7qPjFAwPiiX/hcAayVMa7AwC/nxAFyZdgT8t/8ro/vNPDm/MZ5XwsT6I/irct2mFjCs5ALkM3BzNWLELGOmQZDqUgoIkZHqaiD+VSVH+0O7bjypTTB6eynb64dtmZIkOkEPUWd905pfIyDhr51o1RlA6j5UoWmtSjSaOg7u4HR1MhjNUHqL0IzSXNcLjA5YR5uyhyNCcAp31Vsw7X4L6ePd1DoEk6X3/dC/kWkgJXMwau/VfLF3zObrrx+gI6YDCeJ1PxuBdpoJhuxwk2YuMIVdyAPq0cFctIKxw7oMloa6N9g7A18vZhzBRsdM8gtutUGmGggOnHcJV1GQ3p5YQhZ9XiUj4SKXgppdqfSpmxsXX6UfwDWzoPd5vOQf9GdhJlnV8WeILTULAaRpAtHatJIz16pDBenWh2ygPr3x7o90cPEOHySamgZAwphbVSLP+DmP8nOp5BbR4TkH7cORflSez9wC+pWccxgZ0AyLeEMQDh8VMzvO2LjhkhdphiVw0oAWIBRsbzB64LpUWgsIHygNyFAnmMcAVtvWMl/MoCHMYyU1gHYEmHwQ8MBRb2ZOQ2oHt+RtTkpO0Ww8tO4tbINmIZk09v8NW5/C14b4boRzA7LcTPRPXN8/ffOG97zCtSRsgcNUQ0n2Z/1Zdx6BvvtI/hDscOY2C8CiAyWG62c7VoJf3Ua+VU6QOJMO8khuOvo1BFjewwOw8TM8AUpBEUBzs5TvYzlJbrYpMQWLZInZ5F9n81FHTJK79JVyRm/XXv5CS9/zFq5+H/bAbMHupMsIrOArQRMHZ0gcA6vUNnIBohNiOi/VrJ6/8I75Y6PJSpi6S9lphLxehKXpa/4BMsScUeLRP7Z9czcuod0rSx4YBfkjvwTyuzIKDriQqvwQaFqQffm+bguAtZ6WYZdj+sL3xVuYsw77EVIRZIoGZC17WvvKcKzrxTGkAgqyAShBhyJJ+fG8H0yp86U3dym48w7+NZlf0meJGpRUS3OYUmdvWflvdXSoRcplvX+HgPWKA8db/DRtzD9T4gdGE0ikxNIS8wn79Ry0y9yd+ZrnxpcwTtcJjesqzPb3AfnGkOVzwQ9AVlb41AjuhNtOuAtaYQ16XDXUcfpyz06zwof6fkdH5EOIFN++vjn1/aWhlfbrkkdVZn06/xcVYb5vbn1/cd3g3N748CU7Nm647MVAQdD3qXB+NTSsMGAq7r0PWsgjMb8597RAFUIJHtZD+FS2pXOe+Fvmt1Vr8UPIeZAsyBcJRkk7rEEr6HccblJaQw213Lvedv6qYzTvpWBbQgqPmVJNAG6muvYD6zgbTJ1KR4ADtw3AI4HdO/irX7Tmb51YzS+hxamFA60BVuU5kDaOAZqGJOf6jriV9dL+M1z8ypxg4cLE0NO+f0mEDqZ8R9zHmw3iSkyqMBlOs87/mGlT6wHyToaGg8WUNOiYwdikbSgmTFoU1hrxZGAuAoxfhmNU3qJNAMtWVVFbUPjUaL+TmfSYdDjWy5DyGj5Vv+g374SpZQHaw/EUloTLvLgJAB+OPoqiXo+bcvWHIVDAhLETGJF5xa8YIynUhN1XJoCkWEhXAaONC6fPS6gnPZAQJQSHUwt51bP3XbjbgKumkrSrHNM0WT+fXIYdh+IG+gPmE/s23MRNLNxoJORskzGFuqHpChk6/HqgcGQKi4DPEwPg5E8/XgTerZirwnIN0XObcQyxdpRLm8s6m52O/KauyG8ECIU3MUckYxpU4n+efXDJ8wYofiY8bZIp46B/gxhpCMT6c4SawBjhTmtgj3ASdrP6PBqrJqacc5hlMUc3DVSF0MABBmVOxrC+IFDcrhvf8ZwuLMGxGnbCwMw7nsFc9/8isSl/73kd2EINHC0FuWmYg6h/5SkhwkRQ2zCvaY2eeA2rVpQdbKBBg/UT6CsjiCvlKc/b0L+y4fwGrmJy1PmO1BIDEdZg9dGPluWfIncRsg7bZlYDmGJng1Zmhj4WsYXbh39RZaXy1S+5A88EypSKGy4opWKcgk5DLxJD0kprrcqziLDcYDeWEpH3GHNaqJoe7JDCzlbltaaSlz7I8lItjG9U/tQ9Nx/iRIg7GSAUiXM0HF4kHWrkMO3k3K7qY+cx8x5NAX+MT/LgGgFjVjc2XCzGRpeEsy3ZSF+bkhN3zplMOv4DvO8VAFYC8LAWtN76ES1Ba4ROmmkEi95bg35T5nyckubYwJkT7CHwaQe6Wf5NfePaj1LzZDakJBwtmOj5XcLc5hpWJsGJTTLCU8Kn8IdGIAaX9h0Ma63iXNKChnKc21jezpmzuCaEM8eY4SDJxEgTglHu0a6NCK3AUsMsF4ZCunepRlaBwHqQqozocqgLpTahKbFOl6wHYNiLAxcskxjzBk57f4Ht69Bg62thDZ6giIE+qcj2aSaDN/yf8wEz6UqZaAMVE1xL6M7FP/GBxxBQBwA8uP2WP+779ka+1Spm5xlikEepnyldB2ivLiqnL9OwtSxGWq1v1nXOm9Xay4e5FTU0jOL+DmyoTNU33fHFky741QxuuMhLqRiZN0iqtbXPXslMeVgqFfFAwgn8PkDai3W8n3AJhbEJ65yUa1gp3f68YFREJUf1aEqk9BzANv6NCHVxANq5EIUuPddh+oQw6agzWMH9s47t4UujqnCJL6Fx+J9DXhpNIXas4buZAyXmTQ0L+y6VXN4OOeV2OqIjhZJ3v6qBt1JGFtPfvj2uJfV+93t/chchErRd+7XrVjlkar3K+uD1oKQT+SmE+V/Mb1rdQOFea53ywg+BDOmTBzTjOg40UfL/vFrZZdZDX13EwL6gFudEOPMAix82f0HQyL7UqSoeYpGplpYxEZ5If0NrNEaKJ836F+p4NDHZlFzAdhFYG0GZv4pPXJ3DSIw4GUX8FDTav19nWI9QKiH7WuvgodwR07T673DY7VUaXCHqFobN2A1sRzBqN2fdO4OzsxhcjvFPwiBkQR6cDJqR4Utt79eCJ8BE6XTuq8wDqJCCeTDaKhIYEGElAtqEN7v2S/RDONPXEZMVmXdYBZQnnwTpxoVQLzK7jDteeYpCrjxqAf4v0RkI0vhtGHO/Bmb8K1z/33SXfPiFRxcfaG2FtMrELQgAWfUC2i3sPUw1N+PoivKY/3R5Q/zT0LAUh0Mn/JMX3v1WuLjP01oZagmNtm+IN0d2SxOf48XzH+cb2Rm7Y1iI4Ku2teyDp2Nnh7OteaWo2ers665V8Ndwp2A7JtbjkBqnJyNJhSmHRC3PC/wyDgnERMzWmIuDsbdWtL+qg2ECOIfIA+hfmO8zX63yZebzmt+GD7FoniEFaxwnV4NPmHhv4FgZtCRHOW8QN3DU4ik+F+7YIsjiweMONsdHqj+AA4o/gONbNqBKv4DscNeme5du7W/iI9jqnrtVztw5k0CMa8Kg9ce9MiUlX6gxgAdkuSBfSHj1wCIPoO0gePOmbcmm7rPOerjywIFX0daVZWpPb7bUKO0UW2mrbkeAiBdDd1YBDzTxdcWJjKH5zAPvfs3gjtFpbcMDWJF4ROW6Xs/kKh4z5Ej2UiWEbxy4yeSC7Lym1e9z3JobcjiQG7PJweQaO3DFdjCkg96tg7g+at85uPLkUEHxRt/0BJqXUCeIREVOdEzNhxroz0AQJB381RF3s5xuMbv//dEXjzchJzIiOaJvu2fDEomAfoyGzn3R45C4+I84YeWDfwwPjAVXeWkMLJoIfJfDrtV27uicjgCNnwRg+WS8svtVaLUAfp0kTA6PdYiqZ7e1NHWDpgaM681Q5ignBgM0we0SZIThMcNBaBYsmo6bfSdiJsHXpIuB+4qg8SAZm8sUcV3wg4wXNRLuwUeMDPl+KDeBZzvrG1fDOds9Eeq0UGmqfVqUrGNFzSKrhREDpEOp/cgygX+mh2Cirudl7qQ2ndJ9/0V/ZDkN/lRglonIqt9l/U7QMzJTSYS7MbHBBn+xmDsa3IN8UlQ6bnX1kK/mdxFKx3vZ1yffAQjlGeSQ743mZt5eRNcQvO7iXLyFYIEL4f/TDbD1GABMEvjuQRHJbdx83+VvaI0HBal8Yn+0tT0vW+dO90XPyQ7B3fJ8NkPgpwZ9zlkrsaVfnp4HDGHNbVYawgr1Guq3/PHII2dr+yO/j1EyAoRSfwgbU8OTESMJIY+kixMNcieiPa8FrhSjaVtYAAt6JGghc+nfHvhO/R4cZ+GI6xs9kRhNlQZ4B1I/z0mbt/CuY9H42yBJsIupvg2r/gMUOsQlrThm1zraB2OIJ0u4ldITQh25b7rwo9OpCkejcS2YJwzuhFNoVHZfLhN9mAVhvQ5VTVshtutFCaVe5EBUgK99qItUCcQZ9tXAbAPmB7LoageEG/bdUT2ggb5yoDYH0MI5X0pFYTqcg+CJHwS4+iD9BKtV54tY8GnKfRTT+NGcm9307H3v2114lJMuG+OdoJ3f86Ar7IVbFsT1WaBN+9jxh+Jg0wsnaaWClGnX62qqP3/NHszWGNyX4CtJuag3Yf2CwaH3Wv/fvU/2fuv/TOHvwu+YMtz0MtWAIYzi0PAjVKPa4iKOn3vhyqlb712+vxQpt7dlo/jGcaedw1VyFG+P8JUExl/CeSrZtA+g4hmM6ZnKYzxBlB1W0gsb56mMSS9tTIQ4d5JHI/VPPGKKzM6PRV4Uac8APgENJZb9/s+G9Jv56rUGQEsv7liAK5xIBcCWsxAabCjS5G7M7Wfw3OOQUx7BOvVEKnn5Cz1gtwd0MbRQUgup5ly+5Zqxh1RPnc1WHNWDL960SPytGPXH0/LABoTIvGke5Gp0zMmNa96F86NmCM/JYvvHsPTvMz8HafRQz0gPOgXXj3rK2Y32nIb1j20LT3qinhu0Q1R3LK65t6GKEJBHn8IAKGgnd9JhfEt5n6lKMzz7R3v8xQCNyW/ZVU5uBbZ9I9S/3i1Iu/IAD4/BJUr6mqmJY1iajpeRDLvc6XqSZLPRox2X8V44D3tXCIwDz5VROLinH3u9/Zs7YXvCpE0YzUgoVUk4PeZGqRbp8Ay96C6UEsqZydQds0gwqDi9VjJAJM3U+KWsCdwB+SM8CHiQn8kKL022D3EPZzI60bcAzLwFZHwvd6K5nru7btEdKbzxKA6SfCSr1FPPbVi2TbRIL1lQSW6XJyDqYdYF90b3NaHDm+h3lZjHsYw6coEKKwUApFY6FQhKhszBFzX3JTfsVwpHNYvmdX5ire353e/Rnp+9MyF/KZ+p/gi+w/WKTu7Y+Uq2yX4JJensDcCaWePVvgmZ7qeWIpTMi8mENjUMKAQD9REKT+tDy8OLhAgAJPrxOcdxF4IdUYMVXtLDg4rPKI6GVYxcSceegWmq/Z8Q2+suuQeg5lm8Q8AXZm2GapcWQgCwPS/bEZyrEUUdZkCzdy6A17m49wWFI7TgJ/x7QNBWiBWPYPQ95qvq51JJ2Z5M9grC1HDpc0lx5h5mQLhtcKMnQ8ij+dgHGApt/IM4DGdA/9/PRpzIZzWyzSOJgTus73wunLtscOE7Pb9xsf91dgpdjvkMzrnDvPZgwe3mzxB5OxkhjjCSrosGgleXFmS2dIDF5mHGqXQ7jdVJVkiEeDxO/lTxTF3jqitgB3834rFAf8fdgix4vBK7nuUr+goA19ygP8L8px7mPnJM6fpzJXbvYZEgYOiZJKgBftNaKbV5kMcr4n5oAKtBbHchdPlzpn9lPj7qyuAEHSa5DsqrtXW1pkVXlftEvMt7CQzweOVlsSD10vCgl8K9gC5CsFoOFQ4W+HLgQHF8AnCZ5IJBzcBRHwuxRi6kL0kk15FG2JHnhLzjMbDaDTKqHqKfR+CMTmbMV0sGWjixnv6RDQ2rqgA955JRoYampvnKhfUBUymNP5oHBw0PPvuXoa+Tb+brMthz/d8r/F34ji7XzJlQ22bqh7VVRuLwQ5mN8rFrWrtjFVal/N/hC4NxDa1pZoeT9l/TBSY0Ywq97ABAYly+1HfpC7EovbYBoghv2ABH5sxZkQH/ux/z5zxwPvLHEBfaYdtFG5kpj8es+hCPdBxW+sVyLklosGM4ci1WB93Xh80RNZ2vwj/zKeT8EBS3G9r9nU9gLmvpj6VRkEqFALRqa9v0NAACPgkACFWR5IX4Ujg7WGJJiUIU2gwbLeZrzxzPz/WBctal979fMN+Dd4LnAj4AauoyeD9oQVAeLoU6t1GCyY8FKXkcyzRWBN2tQfG8PKKkGfaInhzsIQwu8BkXDu6pvTe/Y7N+jMfjrBjshSKuw1TCU8UZi0V2wSFJn7hexPtlezRPZ1V+B2XgAayG3DaqGUgeYGHoQZUO7RXWbbXONHMvGUz4yVGLHJwXwVAQKLMH4IVf0DA5Fu1Dk/C1HxYioyPC/xqEIfisp7I4gJLgfMwTzVMHMQKMZ/AohBcx2gDGMYpDNX0KFs1ToFX6FCJod4Eh/xZv3g5nw1+BGb+qa455oT+1JD/6tnROdWY6vjyqDD4ahZUiezyo7YUP9PlezLN9XhzgR5h5FWavVXKwa7oxgJscNVjjk8h7IdJjYX9j04OP7x+LSijl7NDLXDloC/kDmjgcZuYMa6oOzIRghLcDvFyPtpe+lo2WgD2+aL1rM2gE/WLah6Y64MvQcsXmIJbYHPCCpQRc1WrW8wj3cxckkJUMZVIoSCWTjeS3aF6xiUdf3aDLxNtzNf4wIsvI5+DIi+yd28F4CD4Hy6P//f6/g/cKrxd+H+h+cC2sT7YKTBlkO9pkmSA9ufYV3R9hLJjYYhFjZZK6MlfiKICiF0P95kH/mPPdYG/p9j8J0+CJvgeTy9hKKQfVqfcCekGKA/o3NQLhJmivzFZzZHvKwf0quWsNt/zntu/fv8kUbc4uDKcaSraKFcafy+cuFDZPS0Fht3Pk1aUepMikHUv5jp+71UiQmgkXPUmKLLaYx9kmrpAEfXCUR4JpAT5caWpqsXhWQmvbBKfff8FeqS11jXf8J8/D1OEnCK7oq5XXahVTaHP+YcdzZmGu1hgNVvkD5hZTxwn/LLVHkDcAfmeZuvY42Yxd1QlIjMwD0KMXgbKVzU0YzBwmwv1g9vxa9HzkS0MkiCAGUNA8w+eCcTrgO4GZMLnkKQgqScwTLouZAZ8dn4tsDNtBRs0/AK5MDnM74+UOQK2bE/Dhehs2bH0e7X4AgtTv8PcpKhOMhpobdXisTvF8r2csSHWMNv+PT/snb6mYVrS+498ZUOsYjER/wFGkEAAWKoDjmiB+3zWK8od4BYt8flcM5LS/0NorNBsvhD2xh6jDILe0RADmqsR2PhE4JA/y9CguM3p6i1cvmrnwzut1cM9nhQv6eBwh1guxAqAzwX7UXG8UhQ3wynKd35wpV+MMK3kmjx5E5iGMlQGKKuclzYQR72n9Zb/D+Pm1G5nCNkwkJty39cZ8SWbMbcgIZJrz6FSLP+xOdGsjkZoPIUoIz8NcVX/+qjMItMiMgyNN+mY2+K+deQd6X+Vm6rhG5CYDaNgGz+Gwv0MeBDasp8R0UiMAIGNKGQIS1kGKXaZc8oHyskfl+e0akJetIOAk+JqMhI6Bszh8tm4iS0bTCWhC5IMjqcWIn2HH0DcZ2ggIVJhz2KyFud0O2yJ2grsVC6BE+FG8Sz1bv2j1VRSeuCOxsfEGl99HXIoJbYHH9Vg4UgOFEVFz5CUcHk9yGMkppzx899D+gMMQo1TSQ3sVdf1M5+50Lqa3bAqaB0NI3GrKbHaq9ktxeHMdzgJkwBMuPuOf6IWLBOn1+fJURvtTibYj5r4V+cNHhiQNGCc4iUZX2sf03nz5pfZjv2aY6O0yElkALcrRKJ/bQ0Iuo1+RZfpJ51ydtSe/CsmRWgeG/qVPwkRPILkOicExz3AcPsEW+kLhJIGlUsQfBdC69ZSz75pF04LRZBUn7WJtnk4TE8ZTYMaY6DSZOPXTZgSMJCmwAQV+GuYg2mCSjmE9WaTcpws0mvSyAIyeg3Yd0amnD82kIaeg4o6Dw8hGkIwZTcln1i1bA6fy293oFAKRiStAFbZJqx7ho0k/TfwDZ20tTEHgOcGNTf1e/a7qjQhJtIRBiylIFaupPuXiswgMzOYorhg2FUMBo8ESojLjdQzrDzhUxiMayINlgAmRk9Eq9t4jJjwDJI+QzIPwwTVJyo/Q7RH5YlEsbgEJsgj5k3wA5pw0ZoXU5rkhT34voXB49p3hyDgnIdue7yvpQVCjT9QBLLoG1JZQxsCvmujt2EVxvqR2W5+FOM4Aa5TjihoeqtpTDyzeAhjxZSfCfQnady7g5wOTYGJd5XKO/tfMWOKA1Qy3SWNB+ZgX87bMW7TqvcasgEoXJe06tZQSQA/SwjLhUfQ5KGdCCozi3ZJf0QsnuITyO0rOa5gMAn7sCbdba0XMoj3Oc0jiWKqk1u6ACp+FALUHfk7U/tKVZDIlzj20AydD+BmENDuQQWw6OMhXrYYQ9SOaqUauqb5etzsPDCp1X9m5PYqxgKENTaPMVJXks1sSwNKsGWIwuP/dpgXJkvLrpUICkdGXe5TOMTYu0v4zKrwYPb3ljOobzDVRBxNhj4xmudEP1rwtYTIakDV/3I1SjXnFEQCWXglZGrfH8t/W7Xv++RVeQApZA9GC8pAU/a+gPRu7nXe62AH/GYUPVpBPayu1qjQVLvmOl93/CxyxRKkxHdyfdJ/GzMB4W2nsoJohIzW/wukGf4+OUto/a4QgC/MW0hlncZjDd9JRc3QVDmacOf8UW8B4PNMY0zHPbaFM0jvRhvRZGl0rD37LcaAh0u3kwBn3FACPVHLJ6xCb/tRUSFs6NOMa9woWXwHuTowhtEIGWjkPvOpT9ck1T7z9ortnU1M9rDtAwhQYQex5AoQxH5PFt3divkGTM/wxHJXlWjHqVAog4j7lmN+1D2xdrdc1SO0MhcPU67O0gBpimSZExWagQEwWvRKMuqGhvQiRgKfKw+b/BCP3mnyvD6XdJq8EGFfCnz07UQUkdS79n5ACZsZy8J2b0szuQR6Pw+fNu2H8C3CLNGfmdSfi49Te43HCyHu88gDwyDspppJLP5jN7N8AxkXV7yQFWRgGBvTGocnK+X6nH4lM/1uArBWawnnfs+GoDaWYlv6RV4jjd7hSD6378F4zNCxDqJZhKZU3/aDzjEA07AulP0BbNffMT6RE4EEt9eb1S+7B2e7YEKWVipRCJyvI4vyOwV4jcRxcGr5Z74hkM0/UN955YtDW4ejvZeLUfJixOdzD9v7AFOD8KslAWJpfjUfzICbbph0v/cFocurD0eRUVOzVMxgLwEUTQXlSQH2QHA5YUCZh9GqnfmMb1yaWgsdK+WoiuLtdHQ0wjcL/SkdPz08UTRYEF82Ay8n7WUrYx+MgiJkpy8stcmQFmRQD4AUAr5SGje+7OPOvsTGB9sCw3v7qhWBc6yKxaYE5YcwWqDIQgZIqGPG+bCQ6/dM8BL23jKFN6oGjAd/vfcd+m2wUQBAiPX537txSvn7MH6DueB73r084EhmH8HWRzesW/8TLdl6JsCzgWhHMDTDLyZpM+Ic4HOHT2El8FDxFHjqlcc0cttXsMBy8YY4LHDwRO2rwKh+Sd0rRYMFqTO2Zk+wxSyTC0OQggjh2D2pqK/nOIBT+RKA+uBecpGUUkeSziPC3lnUKAvCFVz/jYI7t0Evy8VTJIAJjgDYPYhPhttjUar0vvCCcQ0hVmK25J1DkJSFlOGGyocMoATHHF0wK53vZfbfCYTwKIEu1POk8WYEWF9ZILgOQFZt6FY4zuYZazYaGVg0oB+0A3eaJt1gOWl97Y2AKIJjZwDfCv5pzJiC6yjcT5kLtDJ5av/hHfq7jMqwdXTg7kD40NAPwb5IOdhnHJq9utGUWgubdWd+8MqbPPBzCFSDtEXRLCsd56tiP8aDAKAEWrN30icrBwuIrrUkR03n+UemanIaGo7UGpf7CVcfBF3kugyBSVToexOlfJkUCHP1BweCBLeverbV2ra2vhbwoJ8AIEmBj8jLtW95XzQtOCiwgxYPbtiXgd5HAApr3l+pf2VH9pnkwkTvqqC9Xo61nE9wiHVJqZvpsBDtyNq9b8olctu0T2MJzAEArBu0k20qzIZkT2z6ZEivs5LLY++DGbpzXuKoxkOqHaERHXsjFu6XP3SHKsbcOGQqU5JJSbirgwPQmjwGGU+uXrYLtvB7aH8TIqok4bpzCBk8BmYQaLY0LK7CLuDsSnVYvdlX/WBMyr1XsQ9TAVF2j+Vi3WTrt3O5DozH8MUqAhQh3EZwZle3ajXH7iK7vbBOev9S6d3dP1yubzAkcERPNB0GcMKudHq/wf7qV7WRQOACSMP2ftMZhzrSO8xwZORkAh3kfpIWARedull/fo9nir9IT8tNlRb3IOwHkjtHuFiGXUXotS8+BIAv95nDH3Zb1S271ffck7Mz7MTdLY2deXGu0jGkhZPBcet2HzoHbbRUClCLyv3L+vTdo4cCmQpi59zHGGtHVpBXuhyaIvXv4UUBRQ00T2nMbLnsRPpdNuUzbJxFz6g/UVmN3XqDRovSokcskIlEFBKis69Z8uG7hHcsF3B4IJgeqP85i7cL1dhMnbeJqHQeq+6F0bZQAC1b/CLCFUo/v+Mb8N/ApxfUM7R9CqsvnoZxjcWQIywgRwIy+fliBPGwBxsGZnX84UlT/gjm9sPYxY8ocfbZ93sT5fxpcwiD4IYa6wuwvaDsniYzg6IW073kb+CJUaFR7h56k519oIsVPWpPZCGgCYAxncO7KeeaBd78Gk+GnhStP8bMHfohNFR2IRRPjQanIiEyYdEYcNj0WJzBTZtVklDuQYCqcG+tS1+ECzjhr6cOEg5hGnvJ3M9wD3nLRtnK1i/keen96YwCaNcrwIewXm8pHAaO9TVBglFs2LP1Jh9gxL5dr+yxMbSlsnIpAq4UTR3RAQ87tHPk7xAzw24mu7YHzCOYsZKhvkXcZdxpaHvombUIUYo8Ot1WwivR9quRfh9681ryKY0D/z/aVlA7qmBHlprfMQ5kj5b36+Ru2hHY8jthiaqAQpl4PjgnBwMBNpfCgZibZb6IGxDgZYpEOLSUiOJ4mO7v2S0ciy/dSgYJJX9A/Mudw97EUT7y279sv4RncDrV8JyUSWn2OIxabTPT40Bo3YTMKgnTSbJi6b/GWzcklfw4jLDRa+67zvK7NcJSVxsRQ4cKCSNUQJx04nDY1kDmXPAnDJQ6qA/UnzAlcKq46tfH/prGNhfGxgphGsJvsgJY0k48zV752EIwcan+kbtkwabgj4nDNTQfpxNCjz9K25Me7tySX/CCVfBxCVPtl8NG6HfJrJ47YwXnIVRHhRCFkkN8i5qCe2/BfmiDCfb/+cyFk51DvE+TM6k/wXn1zc4GV43rM40BjrV7TGqx+GYT4kxadQ2tua+IYVgh8UzJPLOiYkZIdZYIjq0w7XvDu129t7yq5IkHpFRVzg7ygIgOGQP8ZnBFcDp4cy0+VpWoZZqRNmKQ/ZMl5CSG0StDcR6cuJ+Z8EIcrz8gfrtzr/8S90fpg16wBtSKBe/TXCivp3YP+cVOvm+sL7x16h7PpgLAKKC2fEAb7YBUwJkMhCbIYNHZjy+JX8ey3+IeDos/xvPbLQf0L8bvOiVTHCbR4vIXyMricw1HNeqclqcX+6u0z/BiXhIUC9fJwAsIsHG/9ftThxye210ReoJRekFTW2yGizi5M59lYSyAsqNDrDi0gJvEhsAu1gG78CmBagUVOYLE2R2mI6/s9YX9ODApIlWqBMAR3AB5pxrmeWi9WoW6r5i2861hfdSzByrIUQ/SdsJjMwnjlzkN4C2QFYh3iMe2ISkE6mNtclMY95bHfR1GRH6Ra6lFRarEocEvR3LzSaWmBxUWIlzQLN45YYdeZG66gA4kRlIad97jmB94epTIF6/0UL4fTx0tIowBYOOQ0UuGoXPdzu6pXP6XLXhHO8TjMq7t7qxnAkjsg2HHjPJ6pynE4uYBvlPgS66gXYu3Hw19hpGY3rz2iPPApaO+QqY42nl/wMOMRUp1nmUpf3WdKNNHWwyi9MA8v4p/jini1r9JYjBk9fpzpH1SuhECjQRbDfNJBNg9YEw43W+jdhusWP4T3+CfmN646SeU634mdBmeCZzVAmQXAVTHFicRjBFxkyDjQlZ3HfNCXoJ854288iAgxlsWq9+CfH7+w9lIwYUq2GFz5wLibHly6F5GiX0FMwtlCLyZ4MpwEGhBUqbSfS38eGrU34N4GYMrNMaCeBP6b5En6jp9JvwFw5f3eNEVP2knfrkneLYNXH+4ASX1XQZBKujSTt7Rc8gou/YB/b2tcdWTM807HeTVnYoqcAT58inCc47QpkVNZAy7sf+GuK/yLPy68/Bvzuc1JDC0WihbvnL/wjvmbNizZ1NCwFPxKWzTU1q17WS9E8sFRbuBLSPzNOodVV1hzKuEu0/UznEP8U0z1I7BmYTfaITC30QYkP5fJuaBapvpADgepI7U0E2QXnYoHWPB8FlEEMct1JUUCHXolTvxeQTAUUqIPlt6fJ3dpawwX1rCGxWiqKEU2EpkaR9TsHzCQHaQDt6WlqY8mYDTZ9n1Hnz3ozZlx7XuBo06BeZDaBPRN0HAJx+VIFOfQvdIdkU+Yd+sxYQJjT9/cRvELBZno8TDwX6DVyuxnbTsaRW7leKWMGqyDq5vwW1sBrJHoRMqNFzSzbUouexaX+PefvMeYNJ7XPQ/MDgxZvQv0egf6abYTqYwaKTgD0MWpoblcwODyoJk5lDeZssWCky64d8az98ndRjAg+IMZIXG9QydZ1OAZdPOZIdeE4NKXLo4t8TNPIjbR4yHnP8GyywPXCVYrW52BKCAhSGkBSB8rVS/q3VR9Xe75hOSB2Xfn/8Tbz/l1bTQaeTt2GTeAOb4Lfwtw7+3QWtJ3S+MsCFNALYwLZngF2DVuaDAzUMGhXQMj0RWg64Kf7TgXGePINh21J19Gg/lU7haccYjv2PxCDbUR9vLPlPQB7RXYmCM87MS+p6ScJsfL6H4tQBVd2+IBFuGOT39f5y5dWki7B3tqHvhg+f6LijtNtSOWRt89j4zNF9AUM4gmIQRxTFW0/fEvWW4e0nCxDDGt0AAVgPKLDgR/ZI5FEKeuBwkaazqdw3T30K5dN7ahYqPu8CDLvp8J5Jfw58y5ulJ1SUxYFo//bPr/7Z0JnBxlmf+rqrtnJhMmFwQkHGJAAzMJhxPkJhMuYRIEdMN+PFBcXHDd9UJAZFdtRHQVz1XXlV10XXX/LqPIkUMgRyeAeDCAkB5AIFwxHIGQazIz3V1V/+/vra6ZnvuqnkyGemHS1VXV7/F73/d5n+t9XkzBxZhsqOAlJUrDmq2F+UQifiRjTIkbgem3gkpEOZmU/9YOScAnMnahdP7bIMqGqRKxQ9MVCiPdHM8jh5oJapxh7eR+CbftCPK/tytmm+3X3/EAPn8YN30Ydt+7mOfRSrlQCdTsDtbTD5L3A3UNN+9VtWN2R6eGmpt7fEIYnLl5ppfJsOc5TnseAsxhZHnmsrRaa5KbN292FOSaOV944r7zoLOWBAP9/Ug0d94Zy97iuq3HQIiZ20aLPReT4lSEKjPX0PorCGtOPpBlZrS0SIhhYtb6x1K/HzY3X4rQf6lZF2pqgh39Fa7/RC7hbcb0ORNaEN2aBSNpGDffOueYU5bPfOiexs0HnnDzpKnbwXKCJQRrIyGPtFnDZbBcy0km/fYd2x27EIRn0O7B9EiL7/27mTNnGs2Bl8y1cKzxZgYvg6MgE9kYLvimqLydqKxg10kr0QvO10Irx/bmpvnhAtm78iO6k6YP0oVZ0684N2FXnsQkFbHuYq6YsQGTqe303uqgiMvUbxHWI4ge7+9KHeVYzqHB2c7jwJeoFM/ymwhLS+vjWlqttBmbaFgZIGnCPNTaS3hzs/HtWOsVifKfuKW/H8jvY+5LlXWe1bqQXmzkV6cQBmKSJF8IlJxoFdRMjE30yUirfgFVftIrFOZQwL01NW/rJLIhowOr/ie3sIvHiKQ2uyQ10yJIZGIbHzXfP9PisNps2sZpE8wi3ZgRQUVHkwWrc5wmAgIlWi3THGZFGoEj22Qbvy3MiVaT7T660trAY/39Wq9hXn+TlW870UtYZ8N/nclcO4Tg8fLV1WPR5zILUbK4W5rbJGmjNb8sNHRrDZ0S41PXsDyLcN4ATe+c++b10fyDuO/bBQSoqn3yfg6B3PrN1APr3MAXbDQZT7zfDou400OuXVHNmmD/fvMN73jJaFIiNt3ID0ZmuMdXvfs14P6dnM3EWYwp9Lafw5E5JQ0AWqVzspmznzLMFUcURF+PtJF+HdvBbtPXHNDEcRSeIefZ/j3Rl68cg+jx4LzQtsFbzl6BRqM8xY3vXMVgDMZk0FEwW0jATfLtML5bYr4gzIxdjRVJxHq+/p7zHmFn4nc5aPqd+CDN47Dpq2GunkykiCDvGAfKcmk/jK7ZmDMs+xDaZIXhGXRttHB87ujY+Wfq/YxCoqAE72sA6vVhJzLiQPQOn3M7D5+7dtk5yqD7bqdhZznKH0jrq4VTfoW6jtMbE4Gh9D0zQebzcG7zGWAlLfaPUsEOct/WAdPr1y2+Jbtm8aWJiuRc12s7n8Cmt8t8xs5EMVflmtuiUJx0Rfa2NauuYc1e3fsy7XUeCu1b66KX4cCQ45lQfvDhfUhly8y6e+eV+pU/6G93LHbvt2ExWKqqOgtpfKWpdjpTlsZs2KCo8CrM/7HxwxLpH7Nkt3OGdYV8GRnBZ7WsXXxPEG8keubqMOvjcDOWddCMKz7s2BU4Tec0IaWdKk3araGJ9Mim174p/x9S4C8VXEfyr2FgcaA/UxpzTd5Ict3jMjGTlFpruOl6uIlxCjHWDtMi0wVBfiBVtySLRtK3169ufJrAh1+r2rFfHb4dH8VNaSe7cNTf6vfoU8gw2f5+yrwpiPwctIt6ignceP+FbTT3HgcGi1ZHOc9UTgEmEnph/6PKzzY17SYirL4UDSkunHz2F6BR9YzTBEXAMNcalkbTM4JGSot9WT7YQW77mj+a2/p85K53trasWXRbdk3jeWzfqyde4loT/iEgqFHOq7De4VGi0wmiWmNuFg+013XnbnzHusuY8yLe3QyH5QSab+tdaPKODoKe3thz7QrrWt7PoF+D+Q1dCxng8hY6tNyHw2DJvb7Ca98uBisztOxH9lYxBIKNZHC757bdz+nochpGqxKsDSPLdaBfmXw1CTi5vLoK08Z2OMmT5dSuGComjtBAPx/RszTb5r/XERxLY18rn3JSnw0MfCf9dXqh3roUyahoqtKNUafAbHPQPlfNYt051kQcMA72o854D8ugZBE2i7Gpfp/9MfSGiSDPzweq82uNn4eIse4p3Adbgd6BuZAwCRxKawjx0HMe1pu+PcW8n+7OQMnnRPcZX7cWt32Psr09asWhPcTjkhbrHM5HhHkfwvmIPbIY/Vf511xrBEFCbvw7h2F/U3lqoQxOYhh9CXEO4x8BWUWKmzqg89BPsyiPrt4SojS39an8DdNOvo+tPvtBtFsNXn7X/ziJasZesJVvdKX1+jU8jpTm/iQn0THZPMWkGb7V3Bzs7M8uOOd+zyv8xXEqeF8/iCYBIo7zbg5NPGyBfY1ybZ49PbL8h1pLM4fRNs47bdmp0Ji1c09bfqjoq3aKjgdt1nAYLNdOsivZ9554LffiIwaALLbpMiUGrKmb5zj/ZDhwJyG/pDKY6NSAII5RsmIaJ5e3PkTI9qOQRO4TJ5xtIkhjWVIQtT1VsL/g2JMOQt2rtvWhEfQTxDRiEbTvVjXarVmdkyiKahE93pTpef5Jjl2FqlnbkCde3KJBsJLPhcG1rmHpt4PDkm0f5lpq/ohSGmfohYVAs+Xb9fV3VGNeYAeff5m0PBC/SPvVVNrkaaYoB2iGqWvKZrNLzHxyKp27vEL7JsyEiugeHZGUZCDtnLTetv9t1SAQnkaqQQjbMPTPuiVNKQWcnNuw7KMcMfIPiYqay2GyVs0587ZZT61o7Ag0WWXAfuhVjN8sMwKyQMiUf0TD8uPnLli6TEJOoHHp+5iZkVRH+YtpV74h445bwIfQZIm5STK5I3UAF7EwCmrZIxOpEp/dsPbS0rLDn/pAzW+xE5AAJ+LNGDh3oYvwOJ93CfNrsbT3nabJsBpl/FRZmsPaJc0eyV8kqvY+1ff8h+pOXfY+Q2eNNiu6Ph5JU4bDYLH8m/XmHut7jR2GOxxhbIihVFQDVsRP0gA7rz6cSFRr3Q80WaP3yRJF1YA3RyTIXs4iZ7u517+ZzTTWP54559lymQWDtqdZUW/MHzDtyqOZJVcRVFS3++oLAoskZWt/hf24v9dLWSsb6URtVqYk8DjL/Bt8fSP9C7PzgCG4OIR+KpGa9ilzWPKCFReIuQ7Ne9ECYrNTabHOCrPWr3ngVgSIp9lQIdt7dMzNkCocmMpk3rBs72acdPWrqM2VKc9rQ9KdWle7YNl3VUDxQHetEWVN6jvTh6cufRcRfH/oFnYQGHRHG1L3acl8smXugjsuMIsiGkuz6Ja1NnHmuwOB0AKhkCps9ft1ctKbGjf7u/5PdVHfl8NUrEX/kIafGKEGv8ufMrelOi7L3DaMlqdlrHdqPrferBW+nfi5cbz3zeapLgmr90+Gewe5n+UJBR1WrZsOP/2WvWXtGQsmS2WoLPWfU2i/i5AVBxY6Xt2JNaAmUTH5F5gt/1NaxaCPYTRH5PIxXDh6v9/Xot77rYBVThDaVJL2KvNCXR2aD/k1lC8JHBE+1K3/DXG8WL2YSO1VwWhF3SlHbOJvDZXZCt4jGJpx4CbGk5Ng+zznoFQpYFqGkBDHrc8svkJtMporHS9SnsRkSJtFDMH+3x05lVsyf/alvbKQPuRIaP3+2a3f2UrgFjBvipDBkiZBISLE8FmnSFNGGtqY0JsTICFtcp7X/PzchqUfgMH4Nk7oeW1uQNq7pXbhsvNkAiiPupm5YxwyMVf41tPygYJYlYcI23bJWO5Oi5vP1fZuQ/1vItYbdXA0v6KtB4SdvF3M75+oW7D87zWvhTvjrkxjzTe+b+q72gXLzyFg5G1FK40L6ZgELelAWzfVTk6+JWT6JPEGmodYmzUBprVpglmEEZIUPgUWYDUhd2bl21/amaiY8m601J1MVqhxirLdh1iHFAUV+3GC7Crr7hNvlIVp4ZWrLKPV9d3S+V2SMdorMRYta85mv6u/lMOu9bCEFpS8O/LLBG4OeZ0akXArb1M2YnzKgWlYReUdMlftNQesTqZq3s7mAmI6OXuhjChghXLZrf2Rls2TH61beMdRRmuetoyLRpjHWH0OjcCJndHxIPld29mbea+pXITH4wzUWAifK04U52AkAfsogMzg00EMwykVqF7lmUsbdG4UA0d+Wuav9Nr4buk5G/UqkmLQGGhJ1pAcHbHCLXQ0orVamF197h8DKdZ3AjPGQLUa+bM6K23UgAdOv/JqTIMnEJZBA74PFa8pg3lEMHDLv1vf6i0TkNQ8iOKfuqJD/UH77Dqa/OaYXSm7idOPoj3DzUPSraTNuoVL38lZZD/D309ZMJ4CnwnOfrx1bsOKS0J1cxklM8ZjuWQVJAvPM/vGLYhML4wMEU47j2UWr2ce/QrtDh/Rm+JVMCFPCAaRvLG24Y73C/eGhgVO1JqjQCMhDeH8fN3CZe9zHHt5sDHH1YKHgGJwroSJLvhum5usmPIJpN0Hj1y4Yo7qtGRJE+E3xtdOpF59Ft8YFAGzZhgh2SdEc/JuNBxvZfwpsOJeMPt5p2LKhfT7Ci3W6veAIYiOue6KOedxnkzvaTdoAwZ/gYFMvmgG2CajOCvaptuLiBjhkEdo0r7H8U76CduFIxagCEeBv1mOdfUkmWBVFWEaavH0PZrk22F/1b3ztzPaaw7EP7vmZDe/U2uo2f7Op5QFDqbLHGEkjsAX/2H6+R9lKhUdLyMN77OJgzBYxf5CCWgnzYa3B7d8/aiN9KptRXg8Tp8167rJkQaBuXD9qnMegdFa6LsdZyGF/g/bwF8wJmhORk9WTK1IdP5N6bzGrwqGanLKaIK8jldh0O7GTHCV7fpHoxlrbFnbuEKStAi9WUixlXQVHe0VzFWFjsQ5eJ/P1KOt+GpgGvQNw9W7JNR1Grh+G7HkEmv0vDn63YOmWNiJhfhfcS3GoizEwJQzqn8iDgcSSrfzFi6tZzgvDdZd7Xs2msQEam/X7CRNVv1XqOUIpabiAjwqoIx/hHwWCMAJ5PMUM4rPQebjMBF0girCZLysXy4JnGD7IMILTLmO734LnxG9ik0jWnMlhcrXz5U5IeFM+jnMz+Wab11Eb7SLW9pRn0o7Rjk+RPU6zg/9hRpLmepXEd7SBFNrQ4i3sTBMPobOfnTuwuV/J1ojX5JymI5KC4+vy4gAjuamHykCs/8daDOOw0RWXIRNuSm3sF0MwdmVbf6f556+4kgxBEzA4u7S0Y5Fy3q5YroZbyydJzDMKDRqaw+hqHC/Im1tbU0UBahrTeNK/wljYrGD+S630L4ukZisyhS1a6VvjvLaRktd2CHGtZG5t27eyUun64BtI0CNXmDBjUO+VLavfpIvndVeeJR5W2+YK8ruUXsp94hh2YGFi3PuUlO+T51+ddhxy6cENHzsTIY9iU6PeuorRBozKxosrormwXQLznM6YHLsUmBL/VFKn9rdR8l3zznp3ppk5c4j0EQdgUbqENZgtqPbe8GfK4AjhBbJ3bdewUTwnOPZT+Zs/8m/ZBa/2lVrEeXapEDPZCLn6ruKMVfppJgr7QJ82XN+bhg+Py+Roh8GS8fjVHA8Tu7R57d8rRjfPh0h85fmcOl00Ie2fxrLELU0zKWZtT0qv/u/RugELikoy0SFCMz2fPtuaTal5g76opP/SDDeXc4etIpajgUcofex5tWLfxecSmHONDPzRwdEB2dV9UtEmURpVNQBIyMwM5kg7IfvV38ukaqe6aHWpvwosZdSTEdqEK5dh74GAVH12TNlMg0EC/adR9P2/Tj5/4qF528QRGTXMIxXz/dH8V1HdrhobWWe/+bchcuOKziVH8uuOuM15Smtg85RU0DUYGFIG/6oj/I68ZSmwOxeginKZq3cvDPo04J1E5q4BhZV/V5zph86x0JK57v5VsW9q0DivQlT8Wntk5xLmhkfhgnPtrAYRTnv+mhNfCs6BBjHVtoQM4vx9WMnOWWRtBmsB90X4cBszUkd1XNwEXkIIepfWtYu+mrAoF/GebPp5I4d+9tDGIvUnXGE5lNBSdUQMyYJf3LEqXe9lX1Zf2+EFpugwp2kJYLmFtdkPIlffOoPjdj2+0tBTCytcU7Cvp7js06lHlpzVBtT3/5+OYL7MK47JLCc4lqt2SNOveMjCFDLg3wMvTT0bXB62R1PCWFFwcmqXbj0Gibt9Y5ThcdSK/3ai7kqqbafAiYXOuBBD95Tae04bt7C5R9oXjN/LS8Zpi3Mt+RHkV72Q3hKy6Af8JLzc7tQ8fsrgye1ES70pWUNfB2AERxZ0ty81H3ivpPFuf+x+Dfwj0ueiqs2k6D50kI224/9uuT9CC4ZyMHhzC9Pn3ITpsHDcfztYHAYtWCf+cMxGibM6ljDczohav8rs3h6h8y88k0F1zo2MA9GPuH6bNruvGkWTS2eqJi9Dnc1flfEkaEvulTMndUDdBEEDrfBpJCoOgqN1n1oXn7mutYNj6+zH4UpL5EE0w7jKmFCH+g8TQsDbEvWxKOZPXuDJ4m6lIkXM4GPQBpfoGsg8BRlxFz9MJqkAHIMILS8ko/+oky7zBY9i0ByLx6dA4v9BZirC6gPRNhoUaMmwmanIkKRh9nmwkRh55ns6ruuo92+qanJLBTGYUU1DOZpjd0+e4PdsXMvu/L5nb7i+/TCk50a2knkuB3/hL/v1ZwFWQVRlX+mFrVBmFZBb+mwbvluSNp9f2XbzuPrTrvjfXIbEPGDMS5qt3viFn8fXwjQV5mMk7EwBTUs/1cnWfNhaaro376FWIUdctuk5Uglk9VfYRx+gOvrqnbM/HUoAIXt6xyLHJVl1TK3dWAuYq9OHmFeG61nJnyZz9oFS0+x7cIv4N8nI7xpTA8yDkt+PJRLVmA7KT2C/2Twehph6IsM5nSvX8Nc5aV1X9/UeBc+kLcnUpPfxVhHoOwHl145DOOGGFdXAktq/2QisQytcBPOOV9ev8p+pBu9hBGuv+NHSZ3zGuBJGdDL/vBEA3U2JO36ZEL+Vq0IjdJODcRcBXUOaDgxu/I7OnApOhCpMwMGX8iubbxO/ERochxGC4f16sAMlmzHBGiyU5Upv9DxzJYpTwcHDafNDrxhFRTdy+GRJUaNa44rCSUHlWFOSedzCX86wkT3lAKuuQW8v4h0HG5XvSx4WOZ/5XclbRGHOX/Csaoucv02tFMDDY5gcZTTOdqHIlOraOtNkdc0l7ffkUik9kZTxpRFymLUjssUgYlQRBJpiJ0nD6TaO15exQL/ZpiJInPVb6sFSIqdfmKmgKrmIsvfeRETfgUWvV9jhbt3hl/1tKSsTgYK2luaODjaJKnNyelIz0+e2fKK/178AWdTfvhqtMDjMA+Rw+qX3wKTZQLUlh6VExYafhqfJUxsCh1B226gnVezOOG7KMmfaRNlCkJL2yLy8IDTcZD9VqW9/UqY118y4O9wXOvhR+9d/LowNcUW8QurEOL5toY79sH2X8/98yw3dyE7FfdGgibQCIumFo/hVRtayOk+SOAw04fio/WH2oalV7Zk7G9oYQi0WWXb+BI2Lf4cBQL19Tcyvy+T793lzO3PamMFYyAJSRtobuGT5HmMRddJVtUyHv9fe81LT8Igidj+tsLOP/pw5oKtnWNR9esxv3VLNCVX89qhnlU4ma/vZu6dI1oKc6UxPPA6qwyGlxCeEJAZ3yj2zezQztzmZllt+ky+OfKHR57vXmEVWheJqeSbNthEraUWuUBgyeMOwGlzFTVLMOMtgaYs40GTU7DuYW4/I58oKh4oavrAU4xPVc6e4xe802nrexGEj1XLDGMYaAP7Zpr7bL7p/0qv2Be4En0JBnxBIZ//4BMrGjfJ/MhZjvRTvxaIvnMdwt0hdDxOE6lJYrDWWmkITNrEEAkI3xAKKN8rBgxMMzBPfRTSPyuS7uPt8t1StHaYq46DZ1x1Jufvftez2tTbGtQDTHqOIbASSZie1wqpvDR0pEADFlxH8W+Qn+N4pxMKgomKicyckxNF3mXIY7QmQiS4TFOwYHfUvLwcTcXR8r8ZRpvNXNECTNdpowQE1D9HDNpmq+0pCMhTfH8BwrUZ9rgVrZEOYxVzMo339+f7W4i58VaUlvsjQUJ42wNiERDfAcbCyLEUDYXBevixe97zonIJ/TH6yzGMizXTqv785tz2d6MJepuR8Msh6Zrx7+s4Kha37UR8r9gfIvppHJE/Rw4A4QAAK2tJREFU7Vm5TeD5BPV8Gpr3IjN9O2uJjlbghAVnGrz2LH4+G0I+hw0v+2obvDYouAX6MzB/DIf4lsCB0MbiYHw3aHMyNfUG6tFgVSY+mL3z7C1aRKU5R0uwWzT4JRWNL3sgEPjfXZjTbmDbqf4mGgumHv05lHNiDJPhc4BxG31r+4zDtzIe0Szvuibv239lMX6SMfcM7MBLxHPbhtCRwwEKGu7vxdjcF0p+cLv18qF8HkqsNea8GIGdYu81ToawxuoXw0hGO+0kjXCW8O4Lfik5o/8kBtEwEuvOfZL2/HMyWfOvhdxW5lQP02n/WQz3Ceo1cJAmmbkEvVwEXotcf+cuzW1o5JOU/Tx9tIVNACyKmHbB0/KdmXwe4u/yOTjVO4zNbI78NukLaQGF6XAFp9J6qy9wd92WR7g93bJ2ZvHn+nBzpvFWy5JZ2AjgkfI2Q+h8ZHQayAJxZ2lN4+vBERBzpWjts/b+3OGeX7i1uIqqAwfDHfMg48gv/PGVV75rHJQxOTG4+mcbB69NtzeoisI9SAt4VYMJz2AGeLGG3V6dAF9gruS4rJYg3f4vfhlnIN1iOzMxMobXQGl0OBSZ34s4OTiaVsLI1PFZZ3iGfnKDWEBuiRLCQc9Fxg6w+9vg0E8mw7rNEgCF41/jA2HiAQ0aNDeIByViXNdwxyWMv3soUgNRzGL0kq7ao3yNxJsruG6HYUqBdBZx6Yio6yzs1eSioUVVkllb5x1anNPJe3piFrdevxn+jZSIHowfoSVqFrntOx4jQvRFzavn31XMShNFxD5O4wCB0KfS7Aa2OncDs2gN16cxeB9tdd7y2uXDWAGjdQBj8QDGYkP/Rj5eZY1UeBeYHia5mS9i8oujNWKQGJyKu81mr/XrVzc/oNybcUMIfEP7LyvQ0lxmsWv+a/haLkZLfbIERH7Rv6tK/9kN9YnZtViklwmwrIZeHkPXHNN/BgGeaJwCBo32QijAU+vVqJPIIg75OxWqZVrSTv4Ghu+7bHj7VFFLGencHoBoUo7id7AI+e07Wr3KVJFTboiltyH0sXYMFo/C2dfxCythmKqxtmohGIy5EuE2/cJIWK2iynA8jhmoB8+4Wt5CR6K94mO4xEg12xNS16REcvtOIjnlvcbpdcSLMd0jiTeQ/MxuQ5kPUV3ztzP8Y3HeGf6Ze0hgBWMuMMRXjEA5mStqaCc4pmZnm+/4v1Ivzdw8c0jzNpB0OcEgc+69LBifR4vDr0OTeln7G1MOzCvsknASXgPi6RbxNMTXLBCDzathVF5rK4sj2jAk8Bx2jn0hg3eygH9JvnNkpEEQBbEfRp3iV/tCIPSh6dwNHLwkrclomBtpSRiLxAXvNRZ3hPNan8Ux2loQDZA/tSk3oA1lHB/aQZiSyMbcLh7sXBQg+8Ko6164SxLNkpW4iPq3YhIVcxWp1qarvOJVF71EG1Vw0RQOOLdFS4Wn5FhyCPoi+vlmQrVAZ3CAn/pJGM4H5iy8bQ7lMbfTA/BFvVo34I3BMnLtimpl8MCW6+e9YHJKqwJxGggBMUTyudpnn6tqUnl7LcFED2CxEhczFAkbfHFOVnR3x86onKiPx7GKx+NwEnoDDveUoAApAVOn8iZSatCZVBAfnC2vQWL7pJGkHMPkRkEAlYcIuRb30j/dC/9K74uJGGzO8dPRJNOsAjt5lMnNj61e9JxMA0XpbEgZB2YwjNKZRV8u5Lbfrphz/FCSbvmTfEu6Yyn8Qix7Y10OH5KuVhppl0XW9bz2XEXV/p/PvlJ9o3mseFnRE/2ukuOrQRGQWVDb9o889c63sBt4JeZiQm8UoLMRCS/BXO0+fwNBNByPPZ6ZcRoFXRmo7bJOyjzY6qZS/6kXa2uH7hMtx25ps3VaCZr495EVOSBcRx8bq6829EUvQyx7zW0WQt0rZ4IeO7aX38bpDlPqk37yYUX8h8HyioLUqMsegNgbPgoCIzoShmfA/4peGXWpEzgDaa6aiY6uQ5yrPO8e4kthHsSEMaBTezdAmEBmXD3xwqvVD+tJ1MfjWNbrRpuBi+NZdC4llJsmdGvfmH0RAQ7MXcs+wqGr12PywQTFAl7eRXnM2tdnQdKQoU4n1htMgX+93hn+IaxprzPY5r47lxTy29bDsEnShcmamGOlTyw7b7JhgGAdubaXtiU4fUG3l5hnMS3shGiML+QPp9AD2g3sOoU1+E1NM3RWmqcJm8zcU/wu5DTr3564+ywctB9IhTG/htpsHR8loSu7ZvHtfqH9KgRP6YG1JrwB13ajrUZLZpbE7zySadwIg0UctSXmxlAx7e+9fhksbAyeid7esRP+1lljMthER8SpXwQOsS6ukuZq9vTPTk3lnftgro5C8pXkP5xJj+1BUoV/Lx2N6vZSbM9RH4/T5B4y7VPT6MwTTHTf8ksK/WI25AfD3EWoKMKGAC9c8S78KP4TtbNEA/3X75gfcl3G84tEYU+mpqBbsb/0GA6tctwM/c+GVW20foYIQ4yRss4Ev7/CpIrJQrX6RiEDpp3s+DU7rmi1d/6jaxY3C9PhLmrDwj5+eUAEgs0G8zlHkICRHe5KmP83Y3bqYNAPh84OWMa4fGj72uFaicDzzNb26depjs3N9SMy76HJKpjQDWsX3YDg+W1cAdDmcILD2GiyxhO8ObUdjeBP0dh/rqti0QhP/S42sLSenSS6t+8+7bj2Q6bg1+sj4eq6GqGrtFRkezzFlkP7s9Z/tx+0z1WzCGj6R8eugLnqGDjWVXcgwm/0rHbPWnfpRp2Fr2+ECU9scW+W61Qeh3p4Jn5h6tN+x0GERY8uq2HsItQCqCjCc09beiLDODyHrgCm5VY5j66No/91B9vTK/P5bb/Prmn8krIbbOfgQEUacwJaQAjPS67lnMwOv5cVY4r5OjbmwoEqNzbPCCORYOFJMCO989dnzs2EWtGxKT4upRcC+MCFR5kRTmEF2pdjYP41HmH+J64ChkVAISfwC5MS3vu7jfef2CYBCGFnpI1mB77CFll2ds2iyzmD9UfJ1DT5QLI5wGizekE/sW5I3PZznPRSWchtu4UTYi427VOg2gh3CQ+wsOJIl9AGAPu+l79xVKu1hBhJTVEDL8YqzQKvQbKnMlmq96UpObQfMO3KozG7PQhz9baiWVAS/zASm1dRG6JV2uk4DhosE3JlRBLKYIXCwp0VaMqi7tPBSi7zcyaIMQsuWHEsIsJytFfMI51SHjCWZS5992VvWwT3q6hEEtvqePkLVZGAAGt+jTwZLSBMlvHZKHjvwCn0OTFx5DixmSzONoW50gKGLj9/QcuaRbeFZqmRoxn/cnQIQGvRrEqAYufXL/GbOT0Im1LWXXCjq3I0v1ZgRDljswMk/1kx+prbEoBGlz20YcnNhgdYn1n00XzH1n+jDMa8SWbX9ejyH6e/Nm4UfiFZOb2ikHv9V9m1i95jaqoNLMTnirLWAzFYePwjt9n2SlPgm1ag+Rgxt9xHncWY2P6++35yvwOnfHpGkLe0WXtOCnb3CZMb8wfOuPI9uKuhuUrsh+ZqqA7tPRpruxwwDK/pP/DCq1/fBPMJHqNbILsX0HU8DuAvkLCyxzC2QzURBuftMZy8y1JV+03FQbmVRhqtXXcsJso3TSOYAXyEaCvX9uL1685/IYgLNFoCHGAUMlnZe8993k101MPEPQAhhskygQ0ZRNRh4iRJ9R1o6giWWCBuhHfGo8TJCfAMjjeaOE3dw1piNhYQQNrpeDtmwb+V2R+NC/01ocZfz05RCzH7T02x+/lGNNNf17oQhFzo+eoIvmv3odHaEEh97aJPFgpb/9lxqhV+Rtr+iShEKd6jA3OeKnS8fiOaK+NOOWJXikEg75uhIQYri3yF37Y977reOpPH3udEytHWWdcaTrkyX/EJ4mNfqzIOsZ7dY2zoMgnKmV31PmD6FV9mZy5bZh3ODmQXy9Ad2vXz0gT3jA+2Y90d3NwUqUmrvrh7cNbenzmc/p2n2C1akUsrMG6vh2oiLDonZjN/ujTf/sovUQFrO50aiiZwz2jq0PtA7fE72LLNvFFcKLcRAnyfmAExRUPPZ/A3Qybr8VXvfo04Ou/w8tt/gXkGFTeHlE4Ik6EZG2acQHwrMYc+YyXst7esOWdVOfAcHPH4jV4IiBlAy5BdffYfvXzbu9Vj0trygV/gREtoTot0K1k5jfMyt/6c410u62plhMoOaW3EZIFty5rFX4FxvVAhhQhZFWiqJ47JkNhXFSl2mxJfa9vV2bWLDZ7aMTicXdZdfTD4VZ8Mlu0nPY7HUQ8/vPWbb3/OaDnSdqQMVrgzjm49iVnyT/vue81+8mEKtEKDV3z3vaEzAdOOCSA64/KD0FytSjjV/+z7BDw0gcOG5dBe0gyZBy0d7gzc7urgQbDbr+SlSC4d3z6FQaZFmT7dQ0yzQ9VgScsqVS+aPxiB9xbyW7+NSSsZ+NKYgF+RYDg+MvE75HjOGYnthIw5rWXtu1aU04wlJstIemC8PtP4AWJEfRyfEN/sMESLBr2IVL0+phjjQCzBVpItxPc3iYrUvOyqxpaYuRrTXhi8sCKTtX7tOb/hgJtTfa9jK+OvCulCAoVo6ERJeRqTkOYKp/YfYsK7yDSsSNsib6SYLIRTmR5b1i5uSljOkbgDPET5laAKn9DvMTyRV6UMGYp3IXr7FGhl7lVCIJ2N5uprgeZOOwaDINRlKFfA9U52BY7PuB+w9AbmwXSLtE0RDt40JpsmV0wVuR7hOJOsikL+h6pJszULMMTEjLekOoU7+tLeQXtfebFjJdazU/A0z2+TbUYVHkW9bXYrcfi35W5ITZliwjOAUZQLFodWCVt1pH16sb58n2AaLDWwSIR1aRw4c9s/JIkskZgsDal82qTNinA8q6QxS6o3UeQt+WSgaWl9vGDnj0YaWzMWZiwj6RmTAubmTOP3oRRHIfH+gQCuFRzvJHqSL0reYwbIKAoyWKq+OuIEl4gOL7ftYxDfdz9y1ztby8msjqLO8U+Z3+obGIF7ElbHPEzW96GpZm4bWran74QzzICTqOSYzaRVyG//NFrpj5lOF3NVRmZANDHc2PLImnOeYHMLBytv+6rqgclcPECRdkbJC5RvOBfpUJ5NwAmEbBjV7bd2uHYt4Snu1PjB34r5368Lji3NlhEoDb2TIiLt6HsgZA5NMdEng+V7yYSf15l5dtFU9UqUCz074wLGjnj1J8FU7Ot5u3IwKhfAtPxL0GAdbDxemKwlnIGSZvIqVAK+VjOvfCtaq2WcKfcTQipNUQBChogWbuo8isTWQTmd0+Prnn02jco7rb7RAhBRSmuAeDNmfHwKFyeY43FGW+eIalaWbESImBiaDNl15/4P51jXwQisNdospwIGn3NWYAbKUna5MpWWCGaAmD9Jgtc6bm7rjdbmXUc9sea8J8ZU02IcQb/oq8zH1y16FEJ8PFqfT6NF2y5CZsyGOIlTV2E8HhMyRohlVdJOTFLU+zsSnnvE+rWLEfR8W+Mm3K0WWQP6pLaR5f6Gyig8nPyRzHs2Mv5OJiDuF+g3aVMV+Vu0WDu4WbdGR5bHEFR2CUqLmjBaVCKZP2F7uRMRYr5jNC1a5MvKXHW1VJpqw4Bwa/2aRdcQvWE+2qz7MBkmYfzkz6qdhprfrE/jEl+OK6J+BssanXf6opvb+f6WzKILnrqncXOJINr3+hqsGwlptgKBUo7vATOm7+ae/AGNNrELt76uujv/zpoUoOXnJzNUn/XbO4Jz7NMNRvPRVwYjuZeVwwgJR68z0QLxmbfRAhG6p/K6A2Zc2frXLelv67kYG8WV0vXYp7RzmPWa2R2YhblSbKsO27uCoXU1i5sirUv7o//FXI0yYR40W/rYghsGdQ2YUIPTKDMv/rzW9G21V3UMO88PxldMg2sUGrdoalXWXGAEMgwzEYvmzPynKKuB3Ucf4fOLqIsP5CwvnWUXMlnGJ7Cs9Rl55qqjjaa3AgKs884exuPqysfWLl6pLIMdRdH6XA1eVdvPZi1jMhTBQevzHe3scvM7P89YvoTo75UQZSyInGCA7Y38utOawQsowxsQSZtTC3xUbYlqNG42WLY+zL0vUv/bVaAZK81WQESjroFm87hcj6Ju6NjkF5qszfhb23hd7cLf3uLld30dJqARrYV21FIRQor4RHYPxuDYVGx4pWhtxXqRqHRSk2H0t+9Ca/TN7Mxd14qhMuMxPfYa90C4SCOgLnAyaxaKDzh5bsOKD6AH+GeEqMPNBjh3l5hCMVuineNgZOtASMtl828F81vnGO7k5I4fWNbkL2fXLdwpRnUJm6BgnPrnKcQ04Q6VgUc5vOE3hyTsyg/SxpNp33T+dIL4HzkB5WctTe+CjWFBQRAzDJe+9JH6lKkgPJN5sG7L947fTobiIvrm9PrIcPBbxocJyTadJNdTwEM/MWXIjE6DvnXg9Cv/TTcD5sq8D3EemkpOvxtFoh5heWmveJbgZJi+T+dsryVhV/8LVYW50qJswq1HxaCgvUokyLeNmNH3q/44pGvA8qd2j/ZP+awM+tqxTjM8IVwt+ffZ/yp/AiXU3vPzwdEHvo20+1+FfKGWifc5mKsX5KhtpF7T4OKuuMCXKMIxPyw0xWxrKRYDrz7CEWMyddwr6RXaWjAJXkIbjnkss3hloKrWjqJodgsOq5bFl0PiooWAer3Elud/9LzUPIjb9/EN256omAqxq0pCpNSm4CBcBjRtGwN8TRmaPCIywhKZdi8RX2noH/TyrR8UlopobaRRiGuwsERcN+0Dk4tlcG6i2j36v2CMaGcDS4Gj/MYoCUYVRxifQFAefVuUYeec02ViyO0pjj9b469lzdnZ9WsbF6G8eGehsGOljoGR3w3Mlugca07p+DON4NZYpmA8ds4FxiVO1/Kzws/JbYOx+iEnns9lPH5BzFWXFjXi8TjkJqc94RvQGd9enznn5zOt6nleYcdH2ATyMJp0tG01FYh+DIXdQjs1swK6ApaOU5WQqRi6s03BU5kWcxGcrs5mFu7U+FAIhgH9rcRcFbWEtQ3LfphKTHkGCfETwIWk6D/IMH2NJfN9CWfyeoTJX9XX31HdhU/foHaXKje1BQObUEye695tfpK+1rbSUQ7G6Rrs7qyprUfyWYsmRcXQQWax53SPDh+gPo4ZrsGz/cs3vfaNlZjneJzmT8yPfj9L9QTYtMAdRUqrLvyJmZFDucyA5s/iqJt9kwXnEjvv/wPmy4NkUpMpk5oKs4i1HbBVdgoGq71547ZvPK0GhTsUA2h0Z7Qp2PHIIDnDrDeGPgr2N0YqTiy7bkm2IttUhyRi/Wtdw5rvwwj8DWvUh/HeOFXmLQlkCndAf2uMaXDqU0CFYzRK0MwiRQEqIyjH97VFmmgfldCtZIL6QS9aV3m+f2PdvrtuCQmE1NxM7v4lMTIcyxQysRs2vO40rzvrScr++JyTbvuqbW1/v2/7H4LJqtNC5wlbhZMITLSmzQCqFURzcbTY9sATswo8FVgmHPwwdHwQWo0V7Jf4D0yBy0J8dDabjg8Jv0f+CccgzSO0Dvo12iYWayc+xPLZvMGuY1vtVFoQfJTxX7Y/2T47+FnZULZLA672qBtHmYL22MIJPb4BafPmlqGCZYSoQJP7ort+deNd1OauIxqWH+972y/h+nzMW/volKxg/BkmUQIMNN/UHdYXDCmdd4da5mANFlOtVmloF9cpLxyPaKMrCIPkss1o1zMFN/8zL2H9+LHVi59TpoG5v6U8WtTBat3H85CJFe3MNNVpntwEbj+eu3BZI5u7P0I7G8VoBbRTCkM8M20H2lnENqrjycSEBwyVMlY/MbfZFOhU6hBpsGx/Apedn/Dop/jevqSmGCw5q7G5aZAQK0XmSszkZmvXn8jjaNdrP78ls/g25VOaYK7O5vkv22ucp+tO+G0d+GwxAlqROSt9V8xCV5pVz6CTl6q/kfnzgnmQThuUul4a7ZVhjqT/WQDjgmmwXaM9rAcDEFGXezAc85jGd6M9utux/R+4ldvv3rTpxl28a+oY1CKdDP25qqxNPk7c1DXLX12POmfpjDpbWqHw4GT0ewz6tBbQ4uBXjpemDpw29UTL8S8ChCWYAqcYxspvDxbaSMyBQc17/Ev9+N+31ur+gQd+etLGjScwkMVYDiUt4aW+3g3u18OUimE7cObVh1kFl3D8Zi0JMR9KARPlHR/mKidt1ubNM20mhmwI/62/ulOW17r2zsX0wVkMQcyoFTMggmAkOonixZNZH8IROK9JcwDZUJ+JKGtdFyk1n1wGCXot/YKSPsiI/wIthu6xMvoJovkmJGmbP5nLDaFoa0eg/TMjfSkk5Jb17GbTD/SPMRmcW+9m07bpRN0fL6nI/JkjdnT+4RNN522ibjfob97C5QvcQocG5FkwBW9FixRgC64ETwQddrRisQtQAseuxc6seqxVYCyYgbAU14DoqpP0G1Q5dpJ+A89ABnLdnR6+6w+j/bvVde3/e/zeRX8hE5PGEMuCFh+SNHiicUEFTHt02fN78bG5rzaXJr0b4EB7lW+CUVakYWtLXyzLdYGlzAnaoorIp4EeKK1/WL++iu/5rMfvbJsAQW5KE0m/njmzNnyhr8x63Qs0uT7arMUE4ZyffyzT+Hte+v3RDb+5Mpf3z2SALAazE8H7MLTCYg4J6iwrl+a3liH1j9rEv5qp+i8Au2QM6rViYhxyFdRR41A46F7wWzFsMMBmbsNgB+SWI30kYDznerk1vPorfCjvlqnT5Ahdagjo0rib22qnaKcYifoNs9Ga2/n1a6xl3F8mU5pVaD2f6/MZD8c6ycnVTEXDQApX8BVGArgH3fSgoOptzW2lznEd4qp5rQmv79BLS3gm0fpxC1rpycUj96Lr51fy7H+zM1vvDjVQJTQ+hylskKTyg/UT5opwS9YRVYS135bKt9eeuvwYZiyniLvUouKlR9a98xm03r8Fjul1Dcuf8ysKd/N+fVhuz4KKDet5u2zfw/J8OYrDYDWas/rwGO+jRDE1jpx59cz1O54F/xWgfCfU809BIM4+fjXMW2/e51P7F9zk2+npM+jFs2HsDpdJGU0aOUH9g15XHcK6D7OEIb1O0Wahfp63t/Cn1UGDKsLku4zUqQzoQ8haeZezPWQfUULfL98j32r/jxde+/o/wBRDqQxjHEEBacf4GGQaWP3MJDZ5HnnWnfvm87n5jmcfT7fMB6/DGYoHmp09mtz8ZwQp1rWAQLO+mTVOsIq+CtwivMb9iG98iigwdnmqP94Tc+FKa+y/zI2nyewR3rwfpuv+bObsp7hXTOk+6xk+HaefAJDGWRwfDswMYR2lZcjtdfB8ZPcGRvxJwDAPqA5CwwDfFCxCwlK4YjYJ0OzENswF/Pix8AwxNUIy7+NTpZckHD5MH63lrVUQxOKuXO6aRawF5vqL3fpcPypPSjtzT50/B71kJYpJmD0dbZiEJer9GZbf83l4v/RT71i5nOWmUHPa3l/XrzpPY0iDTsOvbOmQhjVVk+2dc1RAWM+ehfV3f7Df6LmX9xO5Duvpp/7QiHvKaNrDookjcpFhKRl/D6RyU146khl7HNuKjmMAzQOy2Yy9qWhZzXgyM7hzDDIW4QvC+R3MbdOSoHpmXgv2cCzqmj/GIi4I/CyPttyGrnuPQWL+RGa/29bR1rzx/gvblIuStCaZhgZiUZUwbMGjcfyvzy67JsewJSWamzmn3v6WZCJ5iu95C5ii9bT9MDRMkxFYaYvoXsnc1rw2S5FQDYdtgJ/opbQw4fwWEMZn1u3QuHgcLH9H/it3JXbdu2Hlhdv0XMlgmQFLo50M7g32b6D5vCxfd9ry03AhWIV5+XhObvgDDBRlJDivt/AMeeCzab2JWi5tS1Z8aMPKM7cdcdqyNyftqmc9N3dxNnPOTwPNY3dNuFozhikNamlvv72u2DdVYT+G5nwGWgEN/iJl7bMq4nwhvqlksMtOQmB+K/ce4+9R/lroo6fpq004n73muBU7c1WVHZMnW4Xks6/5u2btnUi2tle6CW+y7Xsz6KYD0DwcCrNRi+JhHktlLXnPCPKWNJOjc5BkLBwjKZbrMUqw8YRpABOGWjjYoitaDRGhADsyH8t2jbINIYPlt/3ohS03fJTxEyGDVVI3Ft66FiuRzbbQ92mNgc4EwzUZD4k3I+/OZqy9FZeDtyBYHQyQ+0ESZ0BPp/Iy1BnGWGaTQILVJNdgzdGf7Qzgbdx/HehZCL2/ElrmWexlz7DwbiA6+gsK4NlZYPEiVG/3Jx31fH88fxfh27Gjxg58nLpqihmxJplKHgojNIf5O8fyndlgdhBYzuSt6WBWzbUEMFQB/BdMDkn47Vzv4M5mrjeC9VNaxHgluyvZ+mQp0eV5p6lgImCp9vROksK7hITezyO5E5CRSLIaLJMo2yOtVjN0o5nDkXv5K9pHNiw/IO+JybIOhUoeho1ec/sAargPf8UxaA6SZgyiz9AYDLStWps0Dlu5tZWx9yr3N7GuPM97z2AQ3MDz56q3bdzUs1wt6lJ8MB+0/kVP8Ml0zBLO43VNTclsdgl4lI7BtHN4w3EHJx2fo+P8wxExD4NuHkK93kSL9warGv4q+QWuGdBNAwM00zYR5FvBEWWD/xL98gzPn8DYn/Vz7uM6UaK0bQGWOvi6V9+Wvtb/NbRfdGHuwuXLMJ9Nw4/0JL1ct3D5n6FFj6EZe//hW2ZMS7gdx+JGsoKNPJfzTrARb8GyX/DqXL4fxboBf/NFra+d/TmGDISqTEOsC91Z0684N+lU3u75OQ2ugZgr/ShM2v3DwPZRIcNribs1HLFuGsaB92xMiL7MiO20sEDj1NAEL1dyMRkCPDlkYniXRwE3bfxtfJz0eJGbqs8Y40KJJiH2WCaga7Hq4f0oPk2nMwCGjHcUhY4+j7FisLpqqi36ic0zNztVG2bLt2NAAigmqGr/6ZPaC7lJENRKiAkOjI6dLxS8SieZT7hWRy4xqQ1uob1Uk9NVXNeVmJCg3Ncp91LK7ZqoXW/t4VdFYqxW9CbIJW3jvSN/d9ekRJtbnbcTVQzcpJfEj7WQ8CzHzbsdzq7Wyhd36VDvkl+VXPp2XV1TqqpKfVi/W7HUAtDePt1WXUoqGMlle/sGO4uPydgxjiGzEkn1e2Vi2tOHkNPrxZHeKB1/g+KWdo4864RJuxiD1QmYfK+Q8pJESMl5fqECOp1vz+Hd17bV2tre/zgMK5p26upqzVo3tv0Vlj8WnxobNybbZ0+3scoNOCYPafhJVU1h5qTcpIpJdt6tEN20peDFNxNFSAfaqtZspoW1vLuwG7YipJWDlRO+3/9nyMjTPw3zX4ap+0rIPM1tWPYoT+9WLMXw9/hfSfi+Hq3453VvXsPy86nzLxGSD5CQrHqV0vmhMjdh/qP8DJwWHcs5SypVkio71KSTp0m4bVkF2qTzfEwSMwL9NVqZapiuaq75VuSRwrcMr4XwgQbH/D5gvsjAACzWKoJwC0GFRv4vXGMRGLUhTrsFAb90gjDBiXdSa0wNYW0yMzdzEv0Sxq5CFaASJlwBzzrV1OF7fX8y3oqmi/D5TPJr4mR7yoXBlvZU6bLgY6L9y04eiGLRx0TY3tyJrcGhbomPqUTmEu8Ry2ql+fobJJk+smUO0otB/1hep2/LIL8u9+MRS9ZDrRiAjl1SMMo9LH5cKTil4y/LXIThashkJHiaFM7FYGFPe4/cNdQxaH6u/GyFApCPZzHL4nhcwngs+k2OaX+FtRiLz+LYUFAHravGHN8bB9HNIkMq4ej1QWqmfDpphN6VOTWTRtMVSbpW/eS/raF+BlWuhpPYEGaLNmcrNt6LahuWzsTVkO0d1ttR5zyNpue74TsFx33e8ZxEMl+xL/dek5Y+fKbPMWaw0gEotn9a4Cvsw1B0q09p3fq7FjPV45mR9OG34LtCqb+XrGgYKX5nfmu4uyCTnnn1yDr+Oj4QCBwdd0NdkKBwNMj0XTKDJxxoZqL28ZZUxmHSWGOsNlluJrz1hv7sA1vj1GFAGQTbEFdh2kc+b2hc48YPDQHmYtryM/0L+oOMQZVSOg4hBmnb7xrCQ6vFxHxrQDo3CK49MMV8lykFqduX0gcjuVZZafwQCoW8jauvVeIPHuws5axX44bwKXiL5wj8Ols0vLgbPcd5GihmtI83iXm0dxpDBitNWenCAdMux1ZpE55B9TEam961Gv4dUVmS+SheB3e6/u3ndtcL8VWMwHARYEJ2jqsSRqo0m3Tpl/h66AgMgm2M69ChjN8cIQKDjEHlmh5h1m/onw2C69hj+nDmgq2Y/16BmrOpybq52Dt7wTz9hrhklx9xym9vcBLuE7ULll/dstb6atWGDeKdOIHGezubJVqtV7c/r980z97g4erXmTpVo513ynRRF2wh4F/ndDbUqJSIVHxlqnCc7fhCoHMr7/iqVlybGIEYgRiBGIE9FQHbl9+Uqb1t3YoO8sOdLbH9arRW0/T9sXvOfhGu8KqKqr2/Urtw2XHNzefK11vKq79HobVK7gjG2b5kR6UejxWDJac3w1Dh7HRm/xpZVSlOMQIxAjECMQIxAjECMQJjhwCxUb9G/Lx9iOL+xaBU+2U0Wsa3VkwYZxn+R75jy5+IO3eDnqPxuphdhUfjjPsFfa+peRs8WPcUcG7d75XhWxqfp3RB4RnI/FgT42bsmLsytCfOMkYgRiBGIEYgRiBGYE9HQJuaTNDhVfNfJlTDJanKvW+qW7h0M7sHTw7bFm58wgfrHbpXu2DpEmKR/sTNb72WY8vW99w9GP5uTBgsmQe1caKi0jqBGJp7m9BAxnml038lrE/8GSMQIxAjECMQIxAjECMwZgiY+Hzselzf1PjjuoalUxKpqT9AQ/U3vu1cb1fYD83sqNy+I1mY3O7umssJVR/n/Mi/LRS23kC4hjTKo27BlEsrPRYmQpkH0aJhrvSsMxRIE94KcyG++XGKEYgRiBGIEYgRiBGIEdjdCDRd6Cm0BAdEfyfvbq3H3jeJ4KgrrXb3hc1221/bC/mNxEW9F05mbr6w4ww0XFfJCatrJ2nvBoyBBitNBRSegYOabftUc+xA73rEd2IEBkZgt4VpGLha8dMYgRiBGIEYgQmBACF0LnSNuW/1wgdp0Ql1J99xMIfIzCcE6kyYra2um3/wsXXnPqnW6rzDpiYpj0yYqD4BGAMGyzjSewdMO2gu3N68IDzDmDnX99no+OYeiEC8i3AP7LS4yjECMQIxAnsWAvK3MkwWAaCzTeZYHhOCoasVaae+fn+Yqwv7jH3V9d4YBhq1E4lTHWsSYdjbVCnOYYpTjMAwENApdHGKEYgRiBGIEYgRKDMCRad2jv7hmCuO/mHPoCmxakObOXqruZmj9YaQxkCDpVPr0wrHSHgG1kjZCPkSpxiBISHQOVY6L4b0s/ilGIEYgRiBGIEYgVEgADPFAdIlgUOHm1e5ndxZFW3/gJrPsXPQOtGYBzmpebiVjN9/AyNQ1FtxCFKswXoDD4O46TECMQIxAnsaAmVmsBT/ipTMH2/bFXtz/qAOsy05B9A8jf+JEegfgaLiCgvh9v5fip/ECMQIxAjECMQIjC8EysxgbTLLo207ZwXhGYJwDeMLgrg24xsBbYPFsuxZz4zvesa1ixGIEYgRiBGIEehCoJwMFgvjjUVHMP80tFeUapezvK5WxVcTBAGZBe0kgWk1dP4cNCobmwonSO/GzYgRiBGIEZjICJSR4bnU+FodOP2z8wCwLg7PMJGHUbnaZhdsO0WQEXdDakr1w0EpN5ugteUqMc43RiBGIEYgRiBGIAoEysZg1VmzAu8Z2zvNsSu59uV/FdyLouZxHhMfAXacFvdE3PLss+l2E6x2gKBuEx+QuIUxAjECMQIxAnsKAuVisHQ8jmyCYqnOCMDoP9pp8Dz+N0agGwIuZsFKz2vrsAqFHwVP6mIGvRtE8ZcYgRiBGIEYgfGKQJkYLO0eTHuzaj6zD3Gv3uH74rUCZ+XxCkRcr3GGAHZBx66CP7e/tXH7t5+yrEsJTqsjl+IUIxAjECMQIxAjMP4RKAuDVW8Vdw8mHcIzJPdlrZSzcqx9GP/jYbzUsN1xqio8q/WhF17/+jVBpWbJxBynGIEYgRiBGIEYgT0CgXIwWHaz9bpxRHZs/3Q7OBVHuwnLUdYeAXJcyWEh0IbPXpXnt7/CAZvnBb9Ms2EiHTu3DwvG+OUYgRiBGIEYgd2JQBmYnjSaqibj0O5bdoNlxYqH3dnBe1DZmP/8vGNXT/L8jufxuzpp05ZvvRCbBvegHoyrGiMQIxAjECPQiUAZjq3JGlPgwTM+cwTHm8zzFMMo2D0YayA6YY8viggoppX+bMIxJBWM1vN23Zb08xc/u/07W+vxu2rujKUWYxYjECMQIxAjECOw5yBQBgZLO72a2F9vE55hcoIFExWWjYNynGIEuhCwZTEm7qyYKnz0OGkw/6hn5a/76+s3NAVvxcxVF1rxVYxAjECMQIzAnoZAGRis4nE4nn2G5RjzIP5X8Q7CPW1glKm+YRR2dj24OwiN9oJv5f8Is3XLxi033BmUqbHSBPd1YfEUgDLVJM42RiBGIEYgRiBGoIwIGHNeOfKftc9VcxzXq3TshOv7btnKKUfd4zzLi4Dr+IVCovD6K6989+XuJRln9jgUQ3dQ4m8xAjECMQIxAjECMQIxAsNF4NKUfK2G+6v4/RiBGIEYgRiBGIHxjEAZNUvpZB2hGaqsTaFZaDzjENdtjBFotmZpXLDxIQ6/MMbQx8XFCMQIxAjECMQIxAjECMQIxAjECMQIxAjECMQIxAjECMQIxAjECMQIxAjECMQIxAjECMQIxAjECMQIxAjECMQIRIvA/wf8aViymFfRoAAAAABJRU5ErkJggg==;" vertex="1" parent="1">
          <mxGeometry x="-525" y="592.34" width="120" height="35.31" as="geometry" />
        </mxCell>
        <mxCell id="sySjgek_SS39Fm3X1UtH-49" style="edgeStyle=orthogonalEdgeStyle;rounded=0;orthogonalLoop=1;jettySize=auto;html=1;exitX=0.5;exitY=0.013;exitDx=0;exitDy=0;exitPerimeter=0;shape=link;strokeWidth=3;" edge="1" parent="1" source="sySjgek_SS39Fm3X1UtH-43">
          <mxGeometry relative="1" as="geometry">
            <mxPoint x="-1170.26" y="350" as="targetPoint" />
            <mxPoint x="-1170.26" y="460" as="sourcePoint" />
          </mxGeometry>
        </mxCell>
        <mxCell id="sySjgek_SS39Fm3X1UtH-43" value="" style="rounded=1;whiteSpace=wrap;html=1;fillColor=#f5f5f5;fontColor=#333333;strokeColor=#666666;" vertex="1" parent="1">
          <mxGeometry x="-1250" y="560" width="160" height="250" as="geometry" />
        </mxCell>
        <mxCell id="sySjgek_SS39Fm3X1UtH-44" value="&lt;div&gt;ISP Connection&lt;/div&gt;&lt;div&gt;Personal Modem&lt;br&gt;&lt;/div&gt;" style="text;html=1;align=center;verticalAlign=middle;whiteSpace=wrap;rounded=0;" vertex="1" parent="1">
          <mxGeometry x="-1230" y="580" width="120" height="30" as="geometry" />
        </mxCell>
        <mxCell id="sySjgek_SS39Fm3X1UtH-45" value="" style="image;sketch=0;aspect=fixed;html=1;points=[];align=center;fontSize=12;image=img/lib/mscae/Docker.svg;" vertex="1" parent="1">
          <mxGeometry x="71.22000000000003" y="-260" width="198.78" height="163" as="geometry" />
        </mxCell>
        <mxCell id="sySjgek_SS39Fm3X1UtH-46" value="" style="verticalLabelPosition=bottom;sketch=0;html=1;verticalAlign=top;strokeColor=none;align=center;outlineConnect=0;shape=mxgraph.citrix.cloud;aspect=fixed;" vertex="1" parent="1">
          <mxGeometry x="-1310" y="220" width="280" height="180" as="geometry" />
        </mxCell>
        <mxCell id="sySjgek_SS39Fm3X1UtH-52" value="" style="group" vertex="1" connectable="0" parent="1">
          <mxGeometry x="-1140" y="480" width="110" height="70" as="geometry" />
        </mxCell>
        <mxCell id="sySjgek_SS39Fm3X1UtH-53" value="" style="group" vertex="1" connectable="0" parent="sySjgek_SS39Fm3X1UtH-52">
          <mxGeometry width="110" height="70" as="geometry" />
        </mxCell>
        <mxCell id="sySjgek_SS39Fm3X1UtH-54" value="" style="rounded=1;whiteSpace=wrap;html=1;fillColor=#f5f5f5;fontColor=#333333;strokeColor=#666666;" vertex="1" parent="sySjgek_SS39Fm3X1UtH-53">
          <mxGeometry x="-13.75" y="-5" width="123.75" height="80" as="geometry" />
        </mxCell>
        <mxCell id="sySjgek_SS39Fm3X1UtH-50" value="" style="sketch=0;html=1;aspect=fixed;strokeColor=none;shadow=0;fillColor=#FFCC2D;verticalAlign=top;labelPosition=center;verticalLabelPosition=bottom;shape=mxgraph.gcp2.speed" vertex="1" parent="sySjgek_SS39Fm3X1UtH-53">
          <mxGeometry x="21.25" width="50" height="28.5" as="geometry" />
        </mxCell>
        <mxCell id="sySjgek_SS39Fm3X1UtH-51" value="&lt;div&gt;UP: 50Mbps&lt;/div&gt;&lt;div&gt;DOWN: 1Gbps&lt;br&gt;&lt;/div&gt;" style="text;html=1;align=center;verticalAlign=middle;whiteSpace=wrap;rounded=0;" vertex="1" parent="sySjgek_SS39Fm3X1UtH-53">
          <mxGeometry y="35" width="92.5" height="30" as="geometry" />
        </mxCell>
        <mxCell id="sySjgek_SS39Fm3X1UtH-77" value="" style="group" vertex="1" connectable="0" parent="1">
          <mxGeometry x="-487" y="1480" width="450" height="510" as="geometry" />
        </mxCell>
        <mxCell id="sySjgek_SS39Fm3X1UtH-55" value="" style="rounded=1;whiteSpace=wrap;html=1;fillColor=light-dark(#c9c9c9, #1a1a1a);fontColor=#333333;strokeColor=#666666;strokeWidth=4;fillStyle=hatch;" vertex="1" parent="sySjgek_SS39Fm3X1UtH-77">
          <mxGeometry width="450" height="460" as="geometry" />
        </mxCell>
        <mxCell id="sySjgek_SS39Fm3X1UtH-56" value="&lt;font face=&quot;Lucida Console&quot;&gt;PMOX&lt;/font&gt;" style="text;html=1;align=center;verticalAlign=middle;whiteSpace=wrap;rounded=0;" vertex="1" parent="sySjgek_SS39Fm3X1UtH-77">
          <mxGeometry x="80" y="350" width="60" height="30" as="geometry" />
        </mxCell>
        <mxCell id="sySjgek_SS39Fm3X1UtH-57" value="PMOX.HHLOCALHOST.TOP" style="text;html=1;align=left;verticalAlign=middle;whiteSpace=wrap;rounded=0;" vertex="1" parent="sySjgek_SS39Fm3X1UtH-77">
          <mxGeometry x="175" y="320" width="220" height="20" as="geometry" />
        </mxCell>
        <mxCell id="sySjgek_SS39Fm3X1UtH-58" value="&lt;div&gt;1x Intel N100&lt;/div&gt;&lt;div&gt;2x 8GB DDR5&lt;/div&gt;&lt;div&gt;1x Samsung 256GB NVME&lt;br&gt;&lt;/div&gt;&lt;div&gt;&lt;br&gt;&lt;/div&gt;" style="text;html=1;align=left;verticalAlign=middle;whiteSpace=wrap;rounded=0;" vertex="1" parent="sySjgek_SS39Fm3X1UtH-77">
          <mxGeometry x="175" y="350" width="170" height="40" as="geometry" />
        </mxCell>
        <mxCell id="sySjgek_SS39Fm3X1UtH-59" value="" style="group" vertex="1" connectable="0" parent="sySjgek_SS39Fm3X1UtH-77">
          <mxGeometry x="310" y="440" width="60" height="70" as="geometry" />
        </mxCell>
        <mxCell id="sySjgek_SS39Fm3X1UtH-60" value="" style="rounded=1;whiteSpace=wrap;html=1;fillColor=#f5f5f5;fontColor=#333333;strokeColor=#666666;strokeWidth=5;" vertex="1" parent="sySjgek_SS39Fm3X1UtH-59">
          <mxGeometry width="60" height="70" as="geometry" />
        </mxCell>
        <mxCell id="sySjgek_SS39Fm3X1UtH-61" value="" style="sketch=0;pointerEvents=1;shadow=0;dashed=0;html=1;strokeColor=none;fillColor=#434445;aspect=fixed;labelPosition=center;verticalLabelPosition=bottom;verticalAlign=top;align=center;outlineConnect=0;shape=mxgraph.vvd.ethernet_port;" vertex="1" parent="sySjgek_SS39Fm3X1UtH-59">
          <mxGeometry x="10" y="10" width="40" height="40" as="geometry" />
        </mxCell>
        <mxCell id="sySjgek_SS39Fm3X1UtH-62" value="IGC3" style="text;html=1;align=center;verticalAlign=middle;whiteSpace=wrap;rounded=0;" vertex="1" parent="sySjgek_SS39Fm3X1UtH-59">
          <mxGeometry x="7.5" y="50" width="45" height="15" as="geometry" />
        </mxCell>
        <mxCell id="sySjgek_SS39Fm3X1UtH-63" value="" style="group" vertex="1" connectable="0" parent="sySjgek_SS39Fm3X1UtH-77">
          <mxGeometry x="155" y="440" width="60" height="70" as="geometry" />
        </mxCell>
        <mxCell id="sySjgek_SS39Fm3X1UtH-64" value="" style="rounded=1;whiteSpace=wrap;html=1;fillColor=#f5f5f5;fontColor=#333333;strokeColor=#666666;strokeWidth=5;" vertex="1" parent="sySjgek_SS39Fm3X1UtH-63">
          <mxGeometry width="60" height="70" as="geometry" />
        </mxCell>
        <mxCell id="sySjgek_SS39Fm3X1UtH-65" value="" style="sketch=0;pointerEvents=1;shadow=0;dashed=0;html=1;strokeColor=none;fillColor=#434445;aspect=fixed;labelPosition=center;verticalLabelPosition=bottom;verticalAlign=top;align=center;outlineConnect=0;shape=mxgraph.vvd.ethernet_port;" vertex="1" parent="sySjgek_SS39Fm3X1UtH-63">
          <mxGeometry x="10" y="10" width="40" height="40" as="geometry" />
        </mxCell>
        <mxCell id="sySjgek_SS39Fm3X1UtH-66" value="IGC1" style="text;html=1;align=center;verticalAlign=middle;whiteSpace=wrap;rounded=0;" vertex="1" parent="sySjgek_SS39Fm3X1UtH-63">
          <mxGeometry x="7.5" y="50" width="45" height="15" as="geometry" />
        </mxCell>
        <mxCell id="sySjgek_SS39Fm3X1UtH-67" value="" style="group" vertex="1" connectable="0" parent="sySjgek_SS39Fm3X1UtH-77">
          <mxGeometry x="80" y="440" width="60" height="70" as="geometry" />
        </mxCell>
        <mxCell id="sySjgek_SS39Fm3X1UtH-68" value="" style="rounded=1;whiteSpace=wrap;html=1;fillColor=#f5f5f5;fontColor=#333333;strokeColor=#666666;strokeWidth=5;" vertex="1" parent="sySjgek_SS39Fm3X1UtH-67">
          <mxGeometry width="60" height="70" as="geometry" />
        </mxCell>
        <mxCell id="sySjgek_SS39Fm3X1UtH-69" value="" style="sketch=0;pointerEvents=1;shadow=0;dashed=0;html=1;strokeColor=none;fillColor=#434445;aspect=fixed;labelPosition=center;verticalLabelPosition=bottom;verticalAlign=top;align=center;outlineConnect=0;shape=mxgraph.vvd.ethernet_port;" vertex="1" parent="sySjgek_SS39Fm3X1UtH-67">
          <mxGeometry x="10" y="10" width="40" height="40" as="geometry" />
        </mxCell>
        <mxCell id="sySjgek_SS39Fm3X1UtH-70" value="IGC0" style="text;html=1;align=center;verticalAlign=middle;whiteSpace=wrap;rounded=0;" vertex="1" parent="sySjgek_SS39Fm3X1UtH-67">
          <mxGeometry x="7.5" y="50" width="45" height="15" as="geometry" />
        </mxCell>
        <mxCell id="sySjgek_SS39Fm3X1UtH-71" value="" style="group" vertex="1" connectable="0" parent="sySjgek_SS39Fm3X1UtH-77">
          <mxGeometry x="233" y="440" width="60" height="70" as="geometry" />
        </mxCell>
        <mxCell id="sySjgek_SS39Fm3X1UtH-72" value="" style="rounded=1;whiteSpace=wrap;html=1;fillColor=#f5f5f5;fontColor=#333333;strokeColor=#666666;strokeWidth=5;" vertex="1" parent="sySjgek_SS39Fm3X1UtH-71">
          <mxGeometry width="60" height="70" as="geometry" />
        </mxCell>
        <mxCell id="sySjgek_SS39Fm3X1UtH-73" value="" style="sketch=0;pointerEvents=1;shadow=0;dashed=0;html=1;strokeColor=none;fillColor=#434445;aspect=fixed;labelPosition=center;verticalLabelPosition=bottom;verticalAlign=top;align=center;outlineConnect=0;shape=mxgraph.vvd.ethernet_port;" vertex="1" parent="sySjgek_SS39Fm3X1UtH-71">
          <mxGeometry x="10" y="10" width="40" height="40" as="geometry" />
        </mxCell>
        <mxCell id="sySjgek_SS39Fm3X1UtH-74" value="IGC2" style="text;html=1;align=center;verticalAlign=middle;whiteSpace=wrap;rounded=0;" vertex="1" parent="sySjgek_SS39Fm3X1UtH-71">
          <mxGeometry x="7.5" y="50" width="45" height="15" as="geometry" />
        </mxCell>
        <mxCell id="sySjgek_SS39Fm3X1UtH-75" value="" style="rounded=1;whiteSpace=wrap;html=1;fillColor=#f5f5f5;fontColor=#333333;strokeColor=#666666;gradientColor=none;gradientDirection=west;strokeWidth=5;" vertex="1" parent="sySjgek_SS39Fm3X1UtH-77">
          <mxGeometry x="240" y="200" width="150" height="100" as="geometry" />
        </mxCell>
        <mxCell id="sySjgek_SS39Fm3X1UtH-76" value="ProxMox " style="text;html=1;align=center;verticalAlign=middle;whiteSpace=wrap;rounded=0;" vertex="1" parent="sySjgek_SS39Fm3X1UtH-77">
          <mxGeometry x="250" y="270" width="130" height="20" as="geometry" />
        </mxCell>
        <mxCell id="sySjgek_SS39Fm3X1UtH-129" value="&lt;b&gt;Version&lt;/b&gt;" style="text;html=1;align=center;verticalAlign=middle;whiteSpace=wrap;rounded=0;" vertex="1" parent="sySjgek_SS39Fm3X1UtH-77">
          <mxGeometry x="285" y="260" width="60" height="10" as="geometry" />
        </mxCell>
        <mxCell id="sySjgek_SS39Fm3X1UtH-78" value="" style="group" vertex="1" connectable="0" parent="1">
          <mxGeometry x="-1090" y="1480" width="460" height="510" as="geometry" />
        </mxCell>
        <mxCell id="sySjgek_SS39Fm3X1UtH-79" value="" style="rounded=1;whiteSpace=wrap;html=1;fillColor=light-dark(#c9c9c9, #1a1a1a);fontColor=#333333;strokeColor=#666666;strokeWidth=4;fillStyle=hatch;" vertex="1" parent="sySjgek_SS39Fm3X1UtH-78">
          <mxGeometry width="450" height="460" as="geometry" />
        </mxCell>
        <mxCell id="sySjgek_SS39Fm3X1UtH-80" value="&lt;font face=&quot;Lucida Console&quot;&gt;TNS&lt;/font&gt;" style="text;html=1;align=center;verticalAlign=middle;whiteSpace=wrap;rounded=0;" vertex="1" parent="sySjgek_SS39Fm3X1UtH-78">
          <mxGeometry x="80" y="350" width="60" height="30" as="geometry" />
        </mxCell>
        <mxCell id="sySjgek_SS39Fm3X1UtH-81" value="TNS.HHLOCALHOST.TOP" style="text;html=1;align=left;verticalAlign=middle;whiteSpace=wrap;rounded=0;" vertex="1" parent="sySjgek_SS39Fm3X1UtH-78">
          <mxGeometry x="155" y="320" width="220" height="20" as="geometry" />
        </mxCell>
        <mxCell id="sySjgek_SS39Fm3X1UtH-82" value="&lt;div&gt;1x AMD Ryzen 7 5800X (8 Core + 16 Threads)&lt;br&gt;&lt;/div&gt;&lt;div&gt;4x 16GB DDR4 (64GB)&lt;br&gt;&lt;/div&gt;&lt;div&gt;1x Samsung 256GB NVME&lt;/div&gt;&lt;div&gt;4x SeaGate 10TB (ZFS RAIDZ1x4) (26.3TB usable)&lt;br&gt;&lt;/div&gt;&lt;div&gt;&lt;br&gt;&lt;/div&gt;" style="text;html=1;align=left;verticalAlign=middle;whiteSpace=wrap;rounded=0;" vertex="1" parent="sySjgek_SS39Fm3X1UtH-78">
          <mxGeometry x="155" y="350" width="285" height="60" as="geometry" />
        </mxCell>
        <mxCell id="sySjgek_SS39Fm3X1UtH-83" value="" style="group" vertex="1" connectable="0" parent="sySjgek_SS39Fm3X1UtH-78">
          <mxGeometry x="310" y="440" width="60" height="70" as="geometry" />
        </mxCell>
        <mxCell id="sySjgek_SS39Fm3X1UtH-84" value="" style="rounded=1;whiteSpace=wrap;html=1;fillColor=#f5f5f5;fontColor=#333333;strokeColor=#666666;strokeWidth=5;" vertex="1" parent="sySjgek_SS39Fm3X1UtH-83">
          <mxGeometry width="60" height="70" as="geometry" />
        </mxCell>
        <mxCell id="sySjgek_SS39Fm3X1UtH-85" value="" style="sketch=0;pointerEvents=1;shadow=0;dashed=0;html=1;strokeColor=none;fillColor=#434445;aspect=fixed;labelPosition=center;verticalLabelPosition=bottom;verticalAlign=top;align=center;outlineConnect=0;shape=mxgraph.vvd.ethernet_port;" vertex="1" parent="sySjgek_SS39Fm3X1UtH-83">
          <mxGeometry x="10" y="10" width="40" height="40" as="geometry" />
        </mxCell>
        <mxCell id="sySjgek_SS39Fm3X1UtH-86" value="IGC3" style="text;html=1;align=center;verticalAlign=middle;whiteSpace=wrap;rounded=0;" vertex="1" parent="sySjgek_SS39Fm3X1UtH-83">
          <mxGeometry x="7.5" y="50" width="45" height="15" as="geometry" />
        </mxCell>
        <mxCell id="sySjgek_SS39Fm3X1UtH-87" value="" style="group" vertex="1" connectable="0" parent="sySjgek_SS39Fm3X1UtH-78">
          <mxGeometry x="155" y="440" width="60" height="70" as="geometry" />
        </mxCell>
        <mxCell id="sySjgek_SS39Fm3X1UtH-88" value="" style="rounded=1;whiteSpace=wrap;html=1;fillColor=#f5f5f5;fontColor=#333333;strokeColor=#666666;strokeWidth=5;" vertex="1" parent="sySjgek_SS39Fm3X1UtH-87">
          <mxGeometry width="60" height="70" as="geometry" />
        </mxCell>
        <mxCell id="sySjgek_SS39Fm3X1UtH-89" value="" style="sketch=0;pointerEvents=1;shadow=0;dashed=0;html=1;strokeColor=none;fillColor=#434445;aspect=fixed;labelPosition=center;verticalLabelPosition=bottom;verticalAlign=top;align=center;outlineConnect=0;shape=mxgraph.vvd.ethernet_port;" vertex="1" parent="sySjgek_SS39Fm3X1UtH-87">
          <mxGeometry x="10" y="10" width="40" height="40" as="geometry" />
        </mxCell>
        <mxCell id="sySjgek_SS39Fm3X1UtH-90" value="IGC1" style="text;html=1;align=center;verticalAlign=middle;whiteSpace=wrap;rounded=0;" vertex="1" parent="sySjgek_SS39Fm3X1UtH-87">
          <mxGeometry x="7.5" y="50" width="45" height="15" as="geometry" />
        </mxCell>
        <mxCell id="sySjgek_SS39Fm3X1UtH-91" value="" style="group" vertex="1" connectable="0" parent="sySjgek_SS39Fm3X1UtH-78">
          <mxGeometry x="80" y="440" width="60" height="70" as="geometry" />
        </mxCell>
        <mxCell id="sySjgek_SS39Fm3X1UtH-92" value="" style="rounded=1;whiteSpace=wrap;html=1;fillColor=#f5f5f5;fontColor=#333333;strokeColor=#666666;strokeWidth=5;" vertex="1" parent="sySjgek_SS39Fm3X1UtH-91">
          <mxGeometry width="60" height="70" as="geometry" />
        </mxCell>
        <mxCell id="sySjgek_SS39Fm3X1UtH-93" value="" style="sketch=0;pointerEvents=1;shadow=0;dashed=0;html=1;strokeColor=none;fillColor=#434445;aspect=fixed;labelPosition=center;verticalLabelPosition=bottom;verticalAlign=top;align=center;outlineConnect=0;shape=mxgraph.vvd.ethernet_port;" vertex="1" parent="sySjgek_SS39Fm3X1UtH-91">
          <mxGeometry x="10" y="10" width="40" height="40" as="geometry" />
        </mxCell>
        <mxCell id="sySjgek_SS39Fm3X1UtH-94" value="IGC0" style="text;html=1;align=center;verticalAlign=middle;whiteSpace=wrap;rounded=0;" vertex="1" parent="sySjgek_SS39Fm3X1UtH-91">
          <mxGeometry x="7.5" y="50" width="45" height="15" as="geometry" />
        </mxCell>
        <mxCell id="sySjgek_SS39Fm3X1UtH-95" value="" style="group" vertex="1" connectable="0" parent="sySjgek_SS39Fm3X1UtH-78">
          <mxGeometry x="233" y="440" width="60" height="70" as="geometry" />
        </mxCell>
        <mxCell id="sySjgek_SS39Fm3X1UtH-96" value="" style="rounded=1;whiteSpace=wrap;html=1;fillColor=#f5f5f5;fontColor=#333333;strokeColor=#666666;strokeWidth=5;" vertex="1" parent="sySjgek_SS39Fm3X1UtH-95">
          <mxGeometry width="60" height="70" as="geometry" />
        </mxCell>
        <mxCell id="sySjgek_SS39Fm3X1UtH-97" value="" style="sketch=0;pointerEvents=1;shadow=0;dashed=0;html=1;strokeColor=none;fillColor=#434445;aspect=fixed;labelPosition=center;verticalLabelPosition=bottom;verticalAlign=top;align=center;outlineConnect=0;shape=mxgraph.vvd.ethernet_port;" vertex="1" parent="sySjgek_SS39Fm3X1UtH-95">
          <mxGeometry x="10" y="10" width="40" height="40" as="geometry" />
        </mxCell>
        <mxCell id="sySjgek_SS39Fm3X1UtH-98" value="IGC2" style="text;html=1;align=center;verticalAlign=middle;whiteSpace=wrap;rounded=0;" vertex="1" parent="sySjgek_SS39Fm3X1UtH-95">
          <mxGeometry x="7.5" y="50" width="45" height="15" as="geometry" />
        </mxCell>
        <mxCell id="sySjgek_SS39Fm3X1UtH-99" value="" style="rounded=1;whiteSpace=wrap;html=1;fillColor=#f5f5f5;fontColor=#333333;strokeColor=#666666;gradientColor=none;gradientDirection=west;strokeWidth=5;" vertex="1" parent="sySjgek_SS39Fm3X1UtH-78">
          <mxGeometry x="240" y="200" width="150" height="100" as="geometry" />
        </mxCell>
        <mxCell id="sySjgek_SS39Fm3X1UtH-100" value="TrueNas Scale " style="text;html=1;align=center;verticalAlign=middle;whiteSpace=wrap;rounded=0;" vertex="1" parent="sySjgek_SS39Fm3X1UtH-78">
          <mxGeometry x="250" y="270" width="130" height="20" as="geometry" />
        </mxCell>
        <mxCell id="sySjgek_SS39Fm3X1UtH-130" value="&lt;b&gt;Version&lt;/b&gt;" style="text;html=1;align=center;verticalAlign=middle;whiteSpace=wrap;rounded=0;" vertex="1" parent="sySjgek_SS39Fm3X1UtH-78">
          <mxGeometry x="285" y="260" width="60" height="10" as="geometry" />
        </mxCell>
        <mxCell id="sySjgek_SS39Fm3X1UtH-125" value="" style="rounded=1;whiteSpace=wrap;html=1;fillColor=light-dark(#c9c9c9, #1a1a1a);fontColor=#333333;strokeColor=#666666;strokeWidth=4;fillStyle=hatch;" vertex="1" parent="1">
          <mxGeometry x="-1700" y="1030" width="1020" height="230" as="geometry" />
        </mxCell>
        <mxCell id="sySjgek_SS39Fm3X1UtH-126" value="" style="rounded=1;whiteSpace=wrap;html=1;fillColor=#f5f5f5;fontColor=#333333;strokeColor=#666666;gradientColor=none;gradientDirection=west;strokeWidth=5;" vertex="1" parent="1">
          <mxGeometry x="-1660" y="1150" width="410" height="90" as="geometry" />
        </mxCell>
        <mxCell id="sySjgek_SS39Fm3X1UtH-127" value="&lt;font style=&quot;font-size: 31px;&quot;&gt;SWITCH&lt;/font&gt;" style="text;html=1;align=center;verticalAlign=middle;whiteSpace=wrap;rounded=0;" vertex="1" parent="1">
          <mxGeometry x="-830" y="1070" width="60" height="30" as="geometry" />
        </mxCell>
        <mxCell id="efzbPpGwgziq4d4_UylA-1" value="" style="rounded=1;whiteSpace=wrap;html=1;glass=0;shadow=0;fillColor=#f5f5f5;fontColor=#333333;strokeColor=#666666;strokeWidth=4;arcSize=8;" parent="1" vertex="1">
          <mxGeometry x="250" y="20" width="570" height="250" as="geometry" />
        </mxCell>
        <mxCell id="efzbPpGwgziq4d4_UylA-2" value="" style="ellipse;whiteSpace=wrap;html=1;aspect=fixed;fillColor=#000000;strokeColor=none;" parent="1" vertex="1">
          <mxGeometry x="269.9971428571428" y="42.88" width="14.25" height="14.25" as="geometry" />
        </mxCell>
        <mxCell id="efzbPpGwgziq4d4_UylA-4" value="" style="ellipse;whiteSpace=wrap;html=1;aspect=fixed;fillColor=#000000;strokeColor=none;" parent="1" vertex="1">
          <mxGeometry x="270.3671428571428" y="62.88" width="14.25" height="14.25" as="geometry" />
        </mxCell>
        <mxCell id="efzbPpGwgziq4d4_UylA-5" value="" style="ellipse;whiteSpace=wrap;html=1;aspect=fixed;fillColor=#000000;strokeColor=none;" parent="1" vertex="1">
          <mxGeometry x="270.3671428571428" y="83" width="14.25" height="14.25" as="geometry" />
        </mxCell>
        <mxCell id="efzbPpGwgziq4d4_UylA-10" value="ISP / Trunk" style="text;html=1;align=left;verticalAlign=middle;rounded=0;fontFamily=Tahoma;labelBackgroundColor=none;labelBorderColor=none;textShadow=0;whiteSpace=wrap;fontStyle=0" parent="1" vertex="1">
          <mxGeometry x="303.92571428571426" y="40" width="230.7142857142857" height="20" as="geometry" />
        </mxCell>
        <mxCell id="efzbPpGwgziq4d4_UylA-11" value="VLAN - GUEST 10" style="text;html=1;align=left;verticalAlign=middle;rounded=0;fontFamily=Tahoma;labelBackgroundColor=none;labelBorderColor=none;textShadow=0;whiteSpace=wrap;fontStyle=0" parent="1" vertex="1">
          <mxGeometry x="303.92571428571426" y="80" width="285" height="20" as="geometry" />
        </mxCell>
        <mxCell id="efzbPpGwgziq4d4_UylA-12" value="VLAN - TRUST - 10.0.0.10" style="text;html=1;align=left;verticalAlign=middle;rounded=0;fontFamily=Tahoma;labelBackgroundColor=none;labelBorderColor=none;textShadow=0;whiteSpace=wrap;fontStyle=0" parent="1" vertex="1">
          <mxGeometry x="303.92571428571426" y="60" width="271.42857142857144" height="20" as="geometry" />
        </mxCell>
        <mxCell id="efzbPpGwgziq4d4_UylA-14" value="" style="line;strokeWidth=2;rotatable=0;dashed=0;labelPosition=right;align=left;verticalAlign=middle;spacingTop=0;spacingLeft=6;points=[];portConstraint=eastwest;" parent="1" vertex="1">
          <mxGeometry x="589.2857142857142" y="75" width="81.42857142857143" height="10" as="geometry" />
        </mxCell>
        <mxCell id="efzbPpGwgziq4d4_UylA-17" value="" style="endArrow=none;dashed=1;html=1;rounded=0;strokeWidth=3;" parent="1" edge="1">
          <mxGeometry width="50" height="50" relative="1" as="geometry">
            <mxPoint x="599.4642857142858" y="107.15999999999998" as="sourcePoint" />
            <mxPoint x="660.5357142857142" y="107.08" as="targetPoint" />
          </mxGeometry>
        </mxCell>
        <mxCell id="efzbPpGwgziq4d4_UylA-18" value="" style="line;strokeWidth=4;rotatable=0;dashed=0;labelPosition=right;align=left;verticalAlign=middle;spacingTop=0;spacingLeft=6;points=[];portConstraint=eastwest;" parent="1" vertex="1">
          <mxGeometry x="589.29" y="135" width="60.71" height="10" as="geometry" />
        </mxCell>
        <mxCell id="efzbPpGwgziq4d4_UylA-19" value="" style="verticalLabelPosition=bottom;shadow=0;dashed=0;align=center;html=1;verticalAlign=top;shape=mxgraph.electrical.transmission.2_line_bus;" parent="1" vertex="1">
          <mxGeometry x="589.2914285714286" y="160" width="67.85714285714286" height="10" as="geometry" />
        </mxCell>
        <mxCell id="sySjgek_SS39Fm3X1UtH-147" value="" style="ellipse;whiteSpace=wrap;html=1;aspect=fixed;fillColor=#000000;strokeColor=none;" vertex="1" parent="1">
          <mxGeometry x="270.3671428571428" y="105.75" width="14.25" height="14.25" as="geometry" />
        </mxCell>
        <mxCell id="sySjgek_SS39Fm3X1UtH-148" value="VLAN - GUEST 10" style="text;html=1;align=left;verticalAlign=middle;rounded=0;fontFamily=Tahoma;labelBackgroundColor=none;labelBorderColor=none;textShadow=0;whiteSpace=wrap;fontStyle=0" vertex="1" parent="1">
          <mxGeometry x="304.29571428571427" y="100" width="285" height="20" as="geometry" />
        </mxCell>
        <mxCell id="sySjgek_SS39Fm3X1UtH-168" value="VLAN - GUEST 10" style="text;html=1;align=left;verticalAlign=middle;rounded=0;fontFamily=Tahoma;labelBackgroundColor=none;labelBorderColor=none;textShadow=0;whiteSpace=wrap;fontStyle=0" vertex="1" parent="1">
          <mxGeometry x="304.29571428571427" y="182.12" width="285" height="20" as="geometry" />
        </mxCell>
        <mxCell id="sySjgek_SS39Fm3X1UtH-169" value="" style="ellipse;whiteSpace=wrap;html=1;aspect=fixed;fillColor=#000000;strokeColor=none;" vertex="1" parent="1">
          <mxGeometry x="270.3671428571428" y="185" width="14.25" height="14.25" as="geometry" />
        </mxCell>
        <mxCell id="sySjgek_SS39Fm3X1UtH-170" value="" style="ellipse;whiteSpace=wrap;html=1;aspect=fixed;fillColor=#000000;strokeColor=none;" vertex="1" parent="1">
          <mxGeometry x="270.3671428571428" y="160" width="14.25" height="14.25" as="geometry" />
        </mxCell>
        <mxCell id="sySjgek_SS39Fm3X1UtH-171" value="" style="ellipse;whiteSpace=wrap;html=1;aspect=fixed;fillColor=#000000;strokeColor=none;" vertex="1" parent="1">
          <mxGeometry x="269.9971428571428" y="132.88" width="14.25" height="14.25" as="geometry" />
        </mxCell>
        <mxCell id="sySjgek_SS39Fm3X1UtH-172" value="ISP / Trunk" style="text;html=1;align=left;verticalAlign=middle;rounded=0;fontFamily=Tahoma;labelBackgroundColor=none;labelBorderColor=none;textShadow=0;whiteSpace=wrap;fontStyle=0" vertex="1" parent="1">
          <mxGeometry x="304.29571428571427" y="125" width="230.7142857142857" height="20" as="geometry" />
        </mxCell>
        <mxCell id="sySjgek_SS39Fm3X1UtH-173" value="VLAN - TRUST - 10.0.0.10" style="text;html=1;align=left;verticalAlign=middle;rounded=0;fontFamily=Tahoma;labelBackgroundColor=none;labelBorderColor=none;textShadow=0;whiteSpace=wrap;fontStyle=0" vertex="1" parent="1">
          <mxGeometry x="304.29571428571427" y="155" width="271.42857142857144" height="20" as="geometry" />
        </mxCell>
      </root>
    </mxGraphModel>
  </diagram>
</mxfile>
